<svg id="light" enable-background="new 0 0 24 24" height="512" viewBox="0 0 24 24" width="512" xmlns="http://www.w3.org/2000/svg"><g><path d="m12 20c-4.411 0-8-3.589-8-8s3.589-8 8-8 8 3.589 8 8-3.589 8-8 8zm0-15c-3.859 0-7 3.14-7 7s3.141 7 7 7 7-3.14 7-7-3.141-7-7-7z"/></g><g><path d="m12 3c-.276 0-.5-.224-.5-.5v-2c0-.276.224-.5.5-.5s.5.224.5.5v2c0 .276-.224.5-.5.5z"/></g><g><path d="m12 24c-.276 0-.5-.224-.5-.5v-2c0-.276.224-.5.5-.5s.5.224.5.5v2c0 .276-.224.5-.5.5z"/></g><g><path d="m21.959 18.25c-.085 0-.171-.021-.25-.067l-1.731-1c-.239-.138-.321-.444-.183-.683.138-.24.444-.32.683-.183l1.731 1c.239.138.321.444.183.683-.092.161-.261.25-.433.25z"/></g><g><path d="m3.772 7.75c-.085 0-.171-.021-.25-.067l-1.731-1c-.239-.138-.321-.444-.183-.683.138-.24.444-.319.683-.183l1.731 1c.24.138.322.444.183.683-.092.161-.261.25-.433.25z"/></g><g><path d="m20.228 7.75c-.172 0-.341-.089-.433-.25-.139-.239-.057-.545.183-.683l1.731-1c.238-.137.545-.057.683.183.139.239.057.545-.183.683l-1.731 1c-.08.046-.166.067-.25.067z"/></g><g><path d="m2.041 18.25c-.172 0-.341-.089-.433-.25-.139-.239-.057-.545.183-.683l1.731-1c.238-.138.545-.058.683.183.139.239.057.545-.183.683l-1.731 1c-.079.046-.165.067-.25.067z"/></g></svg>