<svg id="light" enable-background="new 0 0 24 24" height="512" viewBox="0 0 24 24" width="512" xmlns="http://www.w3.org/2000/svg"><g><g><path d="m9 19.915c-.4 0-.777-.156-1.061-.439l-6-6c-.585-.585-.585-1.536 0-2.121l1.414-1.414c.584-.585 1.537-.585 2.121 0l3.526 3.523 9.525-9.525c.584-.585 1.537-.585 2.121 0l1.414 1.414c.585.585.585 1.536 0 2.121l-12 12c-.283.284-.66.441-1.06.441zm.707-.793h.01zm-5.293-8.622c-.128 0-.256.048-.354.146l-1.414 1.414c-.195.195-.195.512 0 .707l6 6c.189.188.518.188.707 0l12-12c.195-.195.195-.512 0-.707l-1.414-1.414c-.195-.195-.512-.195-.707 0l-9.879 9.878c-.195.195-.512.195-.707 0l-3.879-3.878c-.097-.097-.225-.146-.353-.146z"/></g></g></svg>