<svg id="light" enable-background="new 0 0 24 24" height="512" viewBox="0 0 24 24" width="512" xmlns="http://www.w3.org/2000/svg"><g><path d="m12 24c-6.617 0-12-5.383-12-12s5.383-12 12-12 12 5.383 12 12-5.383 12-12 12zm0-23c-6.065 0-11 4.935-11 11s4.935 11 11 11 11-4.935 11-11-4.935-11-11-11z"/></g><g><path d="m11.5 16c-.128 0-.256-.049-.354-.146l-3.5-3.5c-.195-.195-.195-.512 0-.707s.512-.195.707 0l3.146 3.146 5.646-5.646c.195-.195.512-.195.707 0s.195.512 0 .707l-6 6c-.096.097-.224.146-.352.146z"/></g></svg>