<svg id="light" enable-background="new 0 0 24 24" height="512" viewBox="0 0 24 24" width="512" xmlns="http://www.w3.org/2000/svg"><g><path d="m21.5 24h-19c-1.378 0-2.5-1.122-2.5-2.5v-19c0-1.378 1.122-2.5 2.5-2.5h19c1.378 0 2.5 1.122 2.5 2.5v19c0 1.378-1.122 2.5-2.5 2.5zm-19-23c-.827 0-1.5.673-1.5 1.5v19c0 .827.673 1.5 1.5 1.5h19c.827 0 1.5-.673 1.5-1.5v-19c0-.827-.673-1.5-1.5-1.5z"/></g><g><path d="m11.5 16c-.128 0-.256-.049-.354-.146l-3.5-3.5c-.195-.195-.195-.512 0-.707s.512-.195.707 0l3.146 3.146 5.646-5.646c.195-.195.512-.195.707 0s.195.512 0 .707l-6 6c-.096.097-.224.146-.352.146z"/></g></svg>