<svg id="light" enable-background="new 0 0 24 24" height="512" viewBox="0 0 24 24" width="512" xmlns="http://www.w3.org/2000/svg"><g><path d="m11 24c-6.065 0-11-4.935-11-11s4.935-11 11-11c2.109 0 4.161.601 5.934 1.739.232.149.3.458.151.691-.15.232-.459.3-.691.151-1.612-1.035-3.477-1.581-5.394-1.581-5.514 0-10 4.486-10 10s4.486 10 10 10 10-4.486 10-10c0-.33-.016-.655-.047-.976-.027-.275.174-.52.449-.546.28-.023.52.174.546.449.034.353.052.711.052 1.073 0 6.065-4.935 11-11 11z"/></g><g><path d="m12.5 15.25c-.128 0-.256-.049-.354-.146l-4.5-4.5c-.195-.195-.195-.512 0-.707s.512-.195.707 0l4.146 4.146 10.647-10.647c.195-.195.512-.195.707 0s.195.512 0 .707l-11 11c-.097.098-.225.147-.353.147z"/></g></svg>