<svg id="light" enable-background="new 0 0 24 24" height="512" viewBox="0 0 24 24" width="512" xmlns="http://www.w3.org/2000/svg"><g><path d="m14.939 24c-.303 0-.602-.094-.857-.277l-2.803-2.012c-.165-.112-.396-.112-.568.006l-2.794 2.005c-.426.301-.961.36-1.434.161-.471-.197-.801-.617-.884-1.121l-.566-3.407c-.033-.198-.19-.355-.389-.388l-3.409-.567c-.503-.083-.923-.413-1.12-.884-.198-.474-.139-1.008.159-1.431l2.014-2.806c.112-.163.112-.395-.006-.568l-2.005-2.793c-.3-.418-.36-.951-.163-1.427.197-.475.616-.808 1.122-.891l3.407-.566c.2-.034.357-.191.39-.39l.567-3.409c.083-.503.413-.923.884-1.12.474-.198 1.008-.139 1.431.159l2.806 2.014c.168.12.394.12.561 0l2.802-2.011c.417-.299.951-.36 1.426-.163s.809.617.892 1.123l.19 1.145c.045.272-.139.53-.411.575-.27.047-.53-.139-.575-.411l-.19-1.146c-.039-.235-.214-.332-.288-.362-.075-.031-.268-.087-.461.051l-2.802 2.012c-.516.37-1.208.369-1.725 0l-2.806-2.012c-.138-.097-.307-.116-.464-.051-.153.064-.257.195-.284.36l-.566 3.41c-.104.621-.591 1.108-1.212 1.212l-3.409.566c-.234.039-.331.214-.361.288-.031.074-.088.267.051.461l1.972 2.743c.396.579.396 1.265.046 1.776l-2.018 2.812c-.097.138-.117.308-.051.464.064.153.196.257.361.284l3.409.566c.622.104 1.108.59 1.212 1.212l.566 3.408c.027.166.131.297.284.362.154.064.326.045.468-.054l2.799-2.009c.519-.356 1.206-.356 1.717-.006l2.812 2.018c.194.14.388.082.46.051.074-.03.25-.127.288-.361l.566-3.409c.104-.622.59-1.108 1.212-1.212l3.408-.566c.166-.027.297-.131.362-.284.065-.156.046-.327-.054-.468l-2.009-2.799c-.161-.224-.11-.537.115-.698.224-.161.537-.11.698.115l2.012 2.803c.3.426.359.96.161 1.434-.197.471-.617.801-1.121.884l-3.407.566c-.2.033-.356.19-.39.39l-.567 3.408c-.083.505-.417.925-.892 1.122-.184.076-.377.113-.569.113z"/></g><g><path d="m12.5 15.25c-.128 0-.256-.049-.354-.146l-4.5-4.5c-.195-.195-.195-.512 0-.707s.512-.195.707 0l4.146 4.146 10.647-10.647c.195-.195.512-.195.707 0s.195.512 0 .707l-11 11c-.097.098-.225.147-.353.147z"/></g></svg>