<svg id="light" enable-background="new 0 0 24 24" height="512" viewBox="0 0 24 24" width="512" xmlns="http://www.w3.org/2000/svg"><g><path d="m18.5 24h-16c-1.378 0-2.5-1.122-2.5-2.5v-16c0-1.378 1.122-2.5 2.5-2.5h12.5c.276 0 .5.224.5.5s-.224.5-.5.5h-12.5c-.827 0-1.5.673-1.5 1.5v16c0 .827.673 1.5 1.5 1.5h16c.827 0 1.5-.673 1.5-1.5v-8.5c0-.276.224-.5.5-.5s.5.224.5.5v8.5c0 1.378-1.122 2.5-2.5 2.5z"/></g><g><path d="m12.5 15.25c-.128 0-.256-.049-.354-.146l-4.5-4.5c-.195-.195-.195-.512 0-.707s.512-.195.707 0l4.146 4.146 10.647-10.647c.195-.195.512-.195.707 0s.195.512 0 .707l-11 11c-.097.098-.225.147-.353.147z"/></g></svg>