<svg id="light" enable-background="new 0 0 24 24" height="512" viewBox="0 0 24 24" width="512" xmlns="http://www.w3.org/2000/svg"><g><path d="m10.5 21h-2c-.827 0-1.5-.673-1.5-1.5 0-.311.095-.611.267-.845l4.432-6.655-4.445-6.673c-.159-.216-.254-.516-.254-.827 0-.827.673-1.5 1.5-1.5h2c.499 0 .965.251 1.246.673l5 7.5c.159.216.254.516.254.827s-.095.611-.267.845l-4.987 7.482c-.281.422-.747.673-1.246.673zm-2-17c-.276 0-.5.224-.5.5 0 .095.028.192.073.254l4.643 6.968c.112.168.112.387 0 .555l-4.63 6.95c-.058.081-.086.178-.086.273 0 .276.224.5.5.5h2c.167 0 .317-.083.414-.228l5-7.5c.058-.08.086-.177.086-.272s-.028-.192-.073-.254l-5.013-7.518c-.097-.145-.247-.228-.414-.228z"/></g></svg>