<svg id="light" enable-background="new 0 0 24 24" height="512" viewBox="0 0 24 24" width="512" xmlns="http://www.w3.org/2000/svg"><g><path d="m12 24c-6.617 0-12-5.383-12-12s5.383-12 12-12 12 5.383 12 12-5.383 12-12 12zm0-23c-6.065 0-11 4.935-11 11s4.935 11 11 11 11-4.935 11-11-4.935-11-11-11z"/></g><g><path d="m12 6c-.276 0-.5-.224-.5-.5v-2c0-.276.224-.5.5-.5s.5.224.5.5v2c0 .276-.224.5-.5.5z"/></g><g><path d="m12 21c-.276 0-.5-.224-.5-.5v-2c0-.276.224-.5.5-.5s.5.224.5.5v2c0 .276-.224.5-.5.5z"/></g><g><path d="m6.371 9.25c-.085 0-.171-.021-.25-.067l-1.732-1c-.24-.138-.322-.444-.183-.683.138-.239.443-.319.683-.183l1.732 1c.239.138.321.444.183.683-.092.16-.261.25-.433.25z"/></g><g><path d="m19.361 16.75c-.085 0-.171-.021-.25-.067l-1.732-1c-.239-.138-.321-.444-.183-.683s.444-.319.683-.183l1.732 1c.239.138.321.444.183.683-.092.16-.261.25-.433.25z"/></g><g><path d="m4.639 16.75c-.172 0-.341-.09-.433-.25-.139-.239-.057-.545.183-.683l1.732-1c.238-.138.545-.056.683.183.139.239.057.545-.183.683l-1.732 1c-.079.046-.165.067-.25.067z"/></g><g><path d="m17.629 9.25c-.172 0-.341-.09-.433-.25-.139-.239-.057-.545.183-.683l1.732-1c.239-.138.545-.057.683.183.139.239.057.545-.183.683l-1.732 1c-.079.046-.165.067-.25.067z"/></g></svg>