<svg id="light" enable-background="new 0 0 24 24" height="512" viewBox="0 0 24 24" width="512" xmlns="http://www.w3.org/2000/svg"><g><path d="m5.989 20.924c-.384 0-.769-.146-1.061-.438l-1.414-1.415c-.585-.584-.585-1.536 0-2.121l4.951-4.95-4.95-4.95c-.585-.585-.585-1.537 0-2.121l1.414-1.415c.584-.585 1.537-.585 2.121 0l4.95 4.95 4.95-4.95c.584-.585 1.537-.585 2.121 0l1.414 1.415c.585.584.585 1.536 0 2.121l-4.95 4.95 4.95 4.95c.585.585.585 1.537 0 2.121l-1.414 1.415c-.584.585-1.537.585-2.121 0l-4.95-4.95-4.95 4.95c-.292.292-.677.438-1.061.438zm0-16.848c-.128 0-.256.048-.354.146l-1.413 1.414c-.194.195-.194.512 0 .707l5.304 5.303c.093.094.146.221.146.354s-.053.26-.146.354l-5.304 5.303c-.194.195-.194.512 0 .707l1.414 1.415c.195.195.512.195.707 0l5.304-5.303c.195-.195.512-.195.707 0l5.304 5.303c.195.194.512.195.707 0l1.414-1.415c.194-.195.194-.512 0-.707l-5.304-5.303c-.094-.094-.146-.221-.146-.354s.053-.26.146-.354l5.304-5.303c.194-.195.194-.512 0-.707l-1.414-1.415c-.195-.195-.512-.195-.707 0l-5.304 5.303c-.195.195-.512.195-.707 0l-5.304-5.302c-.098-.097-.226-.146-.354-.146zm11.315-.208h.01z"/></g></svg>