<svg id="light" enable-background="new 0 0 24 24" height="512" viewBox="0 0 24 24" width="512" xmlns="http://www.w3.org/2000/svg"><g><path d="m5 24c-2.206 0-4-1.794-4-4s1.794-4 4-4 4 1.794 4 4c0 .662-.165 1.318-.479 1.897-.699 1.297-2.048 2.103-3.521 2.103zm0-7c-1.654 0-3 1.346-3 3s1.346 3 3 3c1.104 0 2.117-.604 2.642-1.578.234-.434.358-.925.358-1.422 0-1.654-1.346-3-3-3z"/></g><g><path d="m19 24c-1.504 0-2.867-.831-3.557-2.168-.29-.561-.443-1.195-.443-1.832 0-2.206 1.794-4 4-4s4 1.794 4 4-1.794 4-4 4zm0-7c-1.654 0-3 1.346-3 3 0 .485.111.947.332 1.373.518 1.004 1.54 1.627 2.668 1.627 1.654 0 3-1.346 3-3s-1.346-3-3-3z"/></g><g><path d="m15.888 22.103c-.181 0-.355-.099-.444-.271l-10.888-21.103c-.127-.246-.03-.547.215-.674.245-.125.547-.03.674.215l10.888 21.103c.127.246.03.547-.215.674-.074.037-.153.056-.23.056z"/></g><g><path d="m8.082 22.16c-.081 0-.162-.019-.237-.06-.243-.131-.334-.435-.203-.677l11.418-21.16c.133-.244.438-.334.678-.203.243.131.334.435.203.677l-11.419 21.16c-.09.167-.262.263-.44.263z"/></g></svg>