<svg id="light" enable-background="new 0 0 24 24" height="512" viewBox="0 0 24 24" width="512" xmlns="http://www.w3.org/2000/svg"><g><path d="m9.5 8h-8c-.827 0-1.5-.673-1.5-1.5v-5c0-.827.673-1.5 1.5-1.5h8c.827 0 1.5.673 1.5 1.5v5c0 .827-.673 1.5-1.5 1.5zm-8-7c-.275 0-.5.224-.5.5v5c0 .276.225.5.5.5h8c.275 0 .5-.224.5-.5v-5c0-.276-.225-.5-.5-.5z"/></g><g><path d="m9.5 24h-8c-.827 0-1.5-.673-1.5-1.5v-11c0-.827.673-1.5 1.5-1.5h8c.827 0 1.5.673 1.5 1.5v11c0 .827-.673 1.5-1.5 1.5zm-8-13c-.275 0-.5.224-.5.5v11c0 .276.225.5.5.5h8c.275 0 .5-.224.5-.5v-11c0-.276-.225-.5-.5-.5z"/></g><g><path d="m22.5 24h-8c-.827 0-1.5-.673-1.5-1.5v-5c0-.827.673-1.5 1.5-1.5h8c.827 0 1.5.673 1.5 1.5v5c0 .827-.673 1.5-1.5 1.5zm-8-7c-.275 0-.5.224-.5.5v5c0 .276.225.5.5.5h8c.275 0 .5-.224.5-.5v-5c0-.276-.225-.5-.5-.5z"/></g><g><path d="m22.5 14h-8c-.827 0-1.5-.673-1.5-1.5v-11c0-.827.673-1.5 1.5-1.5h8c.827 0 1.5.673 1.5 1.5v11c0 .827-.673 1.5-1.5 1.5zm-8-13c-.275 0-.5.224-.5.5v11c0 .276.225.5.5.5h8c.275 0 .5-.224.5-.5v-11c0-.276-.225-.5-.5-.5z"/></g></svg>