<svg id="light" enable-background="new 0 0 24 24" height="512" viewBox="0 0 24 24" width="512" xmlns="http://www.w3.org/2000/svg"><g><path d="m9.5 9h-5c-.827 0-1.5-.673-1.5-1.5v-3c0-.827.673-1.5 1.5-1.5h5c.827 0 1.5.673 1.5 1.5v3c0 .827-.673 1.5-1.5 1.5zm-5-5c-.275 0-.5.224-.5.5v3c0 .276.225.5.5.5h5c.275 0 .5-.224.5-.5v-3c0-.276-.225-.5-.5-.5z"/></g><g><path d="m19.5 21h-5c-.827 0-1.5-.673-1.5-1.5v-3c0-.827.673-1.5 1.5-1.5h5c.827 0 1.5.673 1.5 1.5v3c0 .827-.673 1.5-1.5 1.5zm-5-5c-.275 0-.5.224-.5.5v3c0 .276.225.5.5.5h5c.275 0 .5-.224.5-.5v-3c0-.276-.225-.5-.5-.5z"/></g><g><path d="m19.5 13h-5c-.827 0-1.5-.673-1.5-1.5v-7c0-.827.673-1.5 1.5-1.5h5c.827 0 1.5.673 1.5 1.5v7c0 .827-.673 1.5-1.5 1.5zm-5-9c-.275 0-.5.224-.5.5v7c0 .276.225.5.5.5h5c.275 0 .5-.224.5-.5v-7c0-.276-.225-.5-.5-.5z"/></g><g><path d="m9.5 21h-5c-.827 0-1.5-.673-1.5-1.5v-7c0-.827.673-1.5 1.5-1.5h5c.827 0 1.5.673 1.5 1.5v7c0 .827-.673 1.5-1.5 1.5zm-5-9c-.275 0-.5.224-.5.5v7c0 .276.225.5.5.5h5c.275 0 .5-.224.5-.5v-7c0-.276-.225-.5-.5-.5z"/></g><g><path d="m21.5 24h-19c-1.379 0-2.5-1.122-2.5-2.5v-19c0-1.378 1.121-2.5 2.5-2.5h19c1.379 0 2.5 1.122 2.5 2.5v19c0 1.378-1.121 2.5-2.5 2.5zm-19-23c-.827 0-1.5.673-1.5 1.5v19c0 .827.673 1.5 1.5 1.5h19c.827 0 1.5-.673 1.5-1.5v-19c0-.827-.673-1.5-1.5-1.5z"/></g></svg>