<svg id="light" enable-background="new 0 0 24 24" height="512" viewBox="0 0 24 24" width="512" xmlns="http://www.w3.org/2000/svg"><g><path d="m.5 24c-.128 0-.256-.049-.354-.146-.195-.195-.195-.512 0-.707l11-11c.195-.195.512-.195.707 0s.195.512 0 .707l-11 11c-.097.097-.225.146-.353.146z"/></g><g><path d="m8.102 20.128c-1.099 0-2.236-.148-3.422-.442-.18-.045-.321-.186-.366-.366-1.104-4.468-.163-8.205 2.96-11.76.103-.116.252-.178.408-.169.155.01.296.092.383.221.454.679.937 1.562 1.164 2.505.731-1.365 1.637-3.489 1.376-5.264-.027-.185.051-.37.203-.479 3.483-2.501 7.739-3.972 12.651-4.372.148-.009.291.041.394.145.104.104.157.248.145.394-.546 6.711-2.456 11.135-6.59 15.269-2.898 2.904-5.915 4.318-9.306 4.318zm-2.887-1.343c4.396 1.003 7.951-.139 11.486-3.683 3.828-3.828 5.66-7.93 6.248-14.05-4.367.44-8.171 1.772-11.318 3.965.272 3.19-2.307 6.91-2.42 7.071-.136.194-.39.266-.607.172-.218-.094-.34-.327-.292-.56.203-.988-.22-2.083-.723-2.962-2.473 3.054-3.23 6.269-2.374 10.047z"/></g></svg>