<svg id="light" enable-background="new 0 0 24 24" height="512" viewBox="0 0 24 24" width="512" xmlns="http://www.w3.org/2000/svg"><g><path d="m9.5 24c-.085 0-.17-.021-.246-.065-.157-.089-.254-.255-.254-.435v-10.102c0-.429-.184-.837-.504-1.121l-7.658-6.803c-.532-.471-.838-1.155-.838-1.874v-2.1c0-.827.673-1.5 1.5-1.5h21c.827 0 1.5.673 1.5 1.5v2.1c0 .719-.306 1.403-.839 1.875l-7.657 6.803c-.32.284-.504.692-.504 1.12v6.535c0 .523-.278 1.016-.728 1.286l-4.516 2.709c-.078.048-.167.072-.256.072zm-8-23c-.275 0-.5.224-.5.5v2.1c0 .433.183.844.501 1.125l7.659 6.804c.533.474.84 1.155.84 1.869v9.219l3.758-2.254c.149-.09.242-.255.242-.429v-6.535c0-.714.307-1.396.84-1.869l7.658-6.803c.319-.283.502-.694.502-1.127v-2.1c0-.276-.225-.5-.5-.5z"/></g></svg>