<svg id="light" enable-background="new 0 0 24 24" height="512" viewBox="0 0 24 24" width="512" xmlns="http://www.w3.org/2000/svg"><g><path d="m9.5 24c-.085 0-.17-.021-.246-.065-.157-.089-.254-.255-.254-.435v-7.102c0-.429-.184-.837-.504-1.121l-7.656-6.801c-.533-.474-.84-1.155-.84-1.87v-3.106c0-.276.224-.5.5-.5s.5.224.5.5v3.106c0 .429.184.837.504 1.121l7.656 6.802c.533.474.84 1.155.84 1.869v6.218l4-2.4v-3.818c0-.714.307-1.396.84-1.869l7.656-6.802c.32-.284.504-.692.504-1.121v-3.106c0-.276.224-.5.5-.5s.5.224.5.5v3.106c0 .714-.307 1.396-.84 1.869l-7.656 6.802c-.32.285-.504.693-.504 1.121v4.102c0 .176-.092.338-.243.429l-5 3c-.079.047-.168.071-.257.071z"/></g><g><path d="m12 7c-5.963 0-12-1.202-12-3.5s6.037-3.5 12-3.5 12 1.202 12 3.5-6.037 3.5-12 3.5zm0-6c-6.715 0-11 1.48-11 2.5s4.285 2.5 11 2.5 11-1.48 11-2.5-4.285-2.5-11-2.5z"/></g></svg>