<svg id="light" enable-background="new 0 0 24 24" height="512" viewBox="0 0 24 24" width="512" xmlns="http://www.w3.org/2000/svg"><g><path d="m12 24c-6.617 0-12-5.383-12-12s5.383-12 12-12 12 5.383 12 12-5.383 12-12 12zm0-23c-6.065 0-11 4.935-11 11s4.935 11 11 11 11-4.935 11-11-4.935-11-11-11z"/></g><g><path d="m15 16c-.276 0-.5-.224-.5-.5 0-1.378-1.121-2.5-2.5-2.5s-2.5 1.122-2.5 2.5c0 .276-.224.5-.5.5s-.5-.224-.5-.5c0-1.93 1.57-3.5 3.5-3.5s3.5 1.57 3.5 3.5c0 .276-.224.5-.5.5z"/></g><g><path d="m22.95 16h-21.9c-.276 0-.5-.224-.5-.5s.223-.5.5-.5h21.9c.276 0 .5.224.5.5s-.223.5-.5.5z"/></g><g><path d="m12 13c-.276 0-.5-.224-.5-.5v-6c0-.276.224-.5.5-.5s.5.224.5.5v6c0 .276-.224.5-.5.5z"/></g></svg>