<svg id="light" enable-background="new 0 0 24 24" height="512" viewBox="0 0 24 24" width="512" xmlns="http://www.w3.org/2000/svg"><g><path d="m3.5 24c-.276 0-.5-.224-.5-.5v-23c0-.276.224-.5.5-.5s.5.224.5.5v23c0 .276-.224.5-.5.5z"/></g><g><path d="m20 13h-16.5c-.276 0-.5-.224-.5-.5v-12c0-.276.224-.5.5-.5h16.5c.561 0 1 .439 1 1 0 .315-.143.604-.39.79l-5.419 4.321c-.123.096-.191.237-.191.389s.068.293.188.387l5.429 4.328c.243.187.383.473.383.785 0 .561-.439 1-1 1zm-.001-1c-.001 0 0 0 0 0zm-15.999 0h15.997l-5.429-4.329c-.36-.282-.568-.71-.568-1.171s.208-.889.571-1.173l5.427-4.328-15.998.001z"/></g></svg>