<svg id="light" enable-background="new 0 0 24 24" height="512" viewBox="0 0 24 24" width="512" xmlns="http://www.w3.org/2000/svg"><g><path d="m21.5 24h-19c-1.379 0-2.5-1.122-2.5-2.5v-19c0-1.378 1.121-2.5 2.5-2.5h19c1.379 0 2.5 1.122 2.5 2.5v19c0 1.378-1.121 2.5-2.5 2.5zm-19-23c-.827 0-1.5.673-1.5 1.5v19c0 .827.673 1.5 1.5 1.5h19c.827 0 1.5-.673 1.5-1.5v-19c0-.827-.673-1.5-1.5-1.5z"/></g><g><path d="m14.5 20c-.659 0-1.236-.426-1.437-1.059l-4.082-13.587c-.132-.418-.828-.425-.964.007l-1.608 5.363c-.33 1.064-1.293 1.776-2.399 1.776h-3.51c-.276 0-.5-.224-.5-.5s.224-.5.5-.5h3.51c.665 0 1.245-.429 1.442-1.068l1.609-5.366c.203-.64.78-1.066 1.439-1.066s1.236.426 1.437 1.059l4.082 13.587c.127.398.774.435.933.066l2.562-5.736c.398-.896 1.296-1.476 2.286-1.476h3.7c.276 0 .5.224.5.5s-.224.5-.5.5h-3.7c-.596 0-1.135.347-1.373.883l-2.561 5.731c-.229.536-.767.886-1.366.886z"/></g></svg>