<svg id="light" enable-background="new 0 0 24 24" height="512" viewBox="0 0 24 24" width="512" xmlns="http://www.w3.org/2000/svg"><g><path d="m12 23c-.422 0-.823-.177-1.101-.485-.379-.277-10.899-8.344-10.899-15.015 0-3.584 2.916-6.5 6.5-6.5 2.259 0 4.326 1.164 5.5 3.031 1.174-1.867 3.241-3.031 5.5-3.031 3.584 0 6.5 2.916 6.5 6.5 0 6.671-10.52 14.738-10.968 15.078-.209.245-.61.422-1.032.422zm-5.5-21c-3.033 0-5.5 2.467-5.5 5.5 0 6.18 10.467 14.202 10.572 14.282.318.325.606.262.787.063.174-.143 10.641-8.168 10.641-14.345 0-3.033-2.467-5.5-5.5-5.5-2.193 0-4.172 1.295-5.042 3.299-.158.365-.759.365-.917 0-.869-2.004-2.848-3.299-5.041-3.299z"/></g></svg>