<svg id="light" enable-background="new 0 0 24 24" height="512" viewBox="0 0 24 24" width="512" xmlns="http://www.w3.org/2000/svg"><g><path d="m19.5 24h-4c-.276 0-.5-.224-.5-.5v-7c0-.276-.224-.5-.5-.5h-5c-.276 0-.5.224-.5.5v7c0 .276-.224.5-.5.5h-4c-.827 0-1.5-.673-1.5-1.5v-9.5h-2c-.551 0-1-.449-1-1 0-.265.108-.525.296-.713l11.354-11.144c.194-.19.506-.19.7 0l11.35 11.14c.192.192.3.452.3.717 0 .551-.449 1-1 1h-2v9.5c0 .827-.673 1.5-1.5 1.5zm-3.5-1h3.5c.276 0 .5-.224.5-.5v-10c0-.276.224-.5.5-.5h2.5l-11-10.799-11 10.796 2.5.003c.276 0 .5.224.5.5v10c0 .276.224.5.5.5h3.5v-6.5c0-.827.673-1.5 1.5-1.5h5c.827 0 1.5.673 1.5 1.5z"/></g></svg>