<svg id="light" enable-background="new 0 0 24 24" height="512" viewBox="0 0 24 24" width="512" xmlns="http://www.w3.org/2000/svg"><g><g><path d="m12 23.994c-3.073 0-6.146-1.169-8.485-3.509-4.678-4.679-4.678-12.292 0-16.971 4.679-4.679 12.292-4.679 16.971 0 4.678 4.679 4.678 12.292 0 16.971-2.34 2.34-5.413 3.509-8.486 3.509zm0-22.989c-2.817 0-5.634 1.072-7.778 3.216-4.289 4.289-4.289 11.268 0 15.557s11.269 4.288 15.557 0c4.289-4.289 4.289-11.268 0-15.557-2.145-2.143-4.962-3.216-7.779-3.216z"/></g><g><path d="m12 17.997c-1.537 0-3.073-.584-4.243-1.754-2.339-2.339-2.339-6.146 0-8.485 2.34-2.34 6.146-2.34 8.485 0 2.339 2.339 2.339 6.146 0 8.485-1.169 1.17-2.705 1.754-4.242 1.754zm0-10.995c-1.28 0-2.561.487-3.536 1.462-1.95 1.95-1.95 5.122 0 7.071 1.949 1.949 5.122 1.949 7.071 0 1.95-1.95 1.95-5.122 0-7.071-.974-.974-2.255-1.462-3.535-1.462z"/></g><g><path d="m6.774 10.81c-.128 0-.256-.049-.354-.146l-4.482-4.483c-.195-.195-.195-.512 0-.707s.512-.195.707 0l4.483 4.483c.195.195.195.512 0 .707-.098.097-.226.146-.354.146z"/></g><g><path d="m18.173 22.208c-.128 0-.256-.049-.354-.146l-4.483-4.483c-.195-.195-.195-.512 0-.707s.512-.195.707 0l4.483 4.483c.195.195.195.512 0 .707-.097.098-.225.146-.353.146z"/></g><g><path d="m10.31 7.274c-.128 0-.256-.049-.354-.146l-4.482-4.483c-.195-.195-.195-.512 0-.707s.512-.195.707 0l4.483 4.483c.195.195.195.512 0 .707-.098.098-.226.146-.354.146z"/></g><g><path d="m21.708 18.673c-.128 0-.256-.049-.354-.146l-4.483-4.483c-.195-.195-.195-.512 0-.707s.512-.195.707 0l4.483 4.483c.195.195.195.512 0 .707-.097.097-.225.146-.353.146z"/></g><g><path d="m17.226 10.81c-.128 0-.256-.049-.354-.146-.195-.195-.195-.512 0-.707l4.483-4.483c.195-.195.512-.195.707 0s.195.512 0 .707l-4.483 4.483c-.098.097-.225.146-.353.146z"/></g><g><path d="m5.827 22.208c-.128 0-.256-.049-.354-.146-.195-.195-.195-.512 0-.707l4.483-4.483c.195-.195.512-.195.707 0s.195.512 0 .707l-4.483 4.483c-.097.098-.225.146-.353.146z"/></g><g><path d="m13.69 7.274c-.128 0-.256-.049-.354-.146-.195-.195-.195-.512 0-.707l4.483-4.483c.195-.195.512-.195.707 0s.195.512 0 .707l-4.483 4.483c-.097.098-.225.146-.353.146z"/></g><g><path d="m2.292 18.673c-.128 0-.256-.049-.354-.146-.195-.195-.195-.512 0-.707l4.483-4.483c.195-.195.512-.195.707 0s.195.512 0 .707l-4.483 4.483c-.098.097-.226.146-.353.146z"/></g></g></svg>