<svg id="light" enable-background="new 0 0 24 24" height="512" viewBox="0 0 24 24" width="512" xmlns="http://www.w3.org/2000/svg"><g><path d="m21.5 24h-19c-1.379 0-2.5-1.122-2.5-2.5v-19c0-1.378 1.121-2.5 2.5-2.5h19c1.379 0 2.5 1.122 2.5 2.5v19c0 1.378-1.121 2.5-2.5 2.5zm-19-23c-.827 0-1.5.673-1.5 1.5v19c0 .827.673 1.5 1.5 1.5h19c.827 0 1.5-.673 1.5-1.5v-19c0-.827-.673-1.5-1.5-1.5z"/></g><g><path d="m19.5 12c-.276 0-.5-.224-.5-.5v-6.5h-6.5c-.276 0-.5-.224-.5-.5s.224-.5.5-.5h7c.276 0 .5.224.5.5v7c0 .276-.224.5-.5.5z"/></g><g><path d="m10.5 14c-.128 0-.256-.049-.354-.146-.195-.195-.195-.512 0-.707l9-9c.195-.195.512-.195.707 0s.195.512 0 .707l-9 9c-.097.097-.225.146-.353.146z"/></g><g><path d="m8.5 24c-.276 0-.5-.224-.5-.5v-7.5h-7.5c-.276 0-.5-.224-.5-.5s.224-.5.5-.5h8c.276 0 .5.224.5.5v8c0 .276-.224.5-.5.5z"/></g></svg>