<svg id="light" enable-background="new 0 0 24 24" height="512" viewBox="0 0 24 24" width="512" xmlns="http://www.w3.org/2000/svg"><g><path d="m.47 24.03c-.131 0-.259-.051-.354-.146-.125-.125-.175-.307-.131-.478l1.469-5.711c.022-.087.067-.166.131-.229l17.056-17.057c.585-.585 1.537-.585 2.122 0l2.828 2.828c.585.585.585 1.537 0 2.122l-17.056 17.056c-.063.063-.142.108-.229.131l-5.711 1.469c-.042.01-.084.015-.125.015zm1.919-5.954-1.224 4.76 4.76-1.224 16.959-16.96c.195-.195.195-.512 0-.708l-2.828-2.828c-.195-.196-.512-.195-.708 0zm3.792 3.986h.01z"/></g><g><path d="m20.091 8.652c-.128 0-.256-.049-.354-.146l-4.243-4.243c-.195-.195-.195-.512 0-.707s.512-.195.707 0l4.243 4.243c.195.195.195.512 0 .707-.097.097-.225.146-.353.146z"/></g><g><path d="m6.181 22.562c-.128 0-.256-.049-.354-.146l-4.243-4.243c-.195-.195-.195-.512 0-.707s.512-.195.707 0l4.243 4.243c.195.195.195.512 0 .707-.097.097-.225.146-.353.146z"/></g></svg>