<svg id="light" enable-background="new 0 0 24 24" height="512" viewBox="0 0 24 24" width="512" xmlns="http://www.w3.org/2000/svg"><g><path d="m16.5 15c-4.136 0-7.5-3.364-7.5-7.5s3.364-7.5 7.5-7.5 7.5 3.364 7.5 7.5-3.364 7.5-7.5 7.5zm0-14c-3.584 0-6.5 2.916-6.5 6.5s2.916 6.5 6.5 6.5 6.5-2.916 6.5-6.5-2.916-6.5-6.5-6.5z"/></g><g><path d="m.5 24c-.128 0-.256-.049-.354-.146-.195-.195-.195-.512 0-.707l11.05-11.05c.195-.195.512-.195.707 0s.195.512 0 .707l-11.05 11.05c-.097.097-.225.146-.353.146z"/></g><g><path d="m12.5 8c-.276 0-.5-.224-.5-.5 0-2.481 2.019-4.5 4.5-4.5.276 0 .5.224.5.5s-.224.5-.5.5c-1.93 0-3.5 1.57-3.5 3.5 0 .276-.224.5-.5.5z"/></g></svg>