<svg id="light" enable-background="new 0 0 24 24" height="512" viewBox="0 0 24 24" width="512" xmlns="http://www.w3.org/2000/svg"><g><path d="m13.308 19.263c-.384 0-.768-.146-1.061-.438l-7.071-7.071c-.585-.585-.585-1.536 0-2.121l.474-.476c.472-.472 1.1-.732 1.768-.732h1.172c.401 0 .777-.156 1.06-.439l2.867-2.866c.353-.353.475-.866.317-1.34-.278-.835-.064-1.741.558-2.363l.977-.977c.585-.584 1.537-.585 2.122 0l7.071 7.071c.585.585.585 1.537 0 2.122l-.977.977c-.622.622-1.528.837-2.363.559-.475-.158-.987-.037-1.34.316l-2.866 2.866c-.284.283-.439.66-.439 1.061v1.171c0 .668-.26 1.296-.732 1.768l-.475.475c-.294.291-.678.437-1.062.437zm-5.89-9.838c-.401 0-.777.156-1.061.439l-.475.475c-.195.195-.195.512 0 .707l7.071 7.071c.195.195.512.195.707 0l.475-.475c.283-.284.439-.66.439-1.061v-1.171c0-.668.26-1.296.732-1.768l2.866-2.866c.622-.624 1.527-.837 2.363-.558.474.156.986.036 1.34-.317l.977-.977c.195-.195.195-.512 0-.708l-7.071-7.071c-.194-.195-.512-.195-.708 0l-.977.977c-.353.353-.474.867-.316 1.34.278.835.064 1.741-.559 2.363l-2.866 2.866c-.472.472-1.1.732-1.768.732h-1.169z"/></g><g><path d="m.5 24c-.128 0-.256-.049-.354-.146-.195-.195-.195-.512 0-.707l8.565-8.565c.195-.195.512-.195.707 0s.195.512 0 .707l-8.565 8.565c-.097.097-.225.146-.353.146z"/></g></svg>