<svg id="light" enable-background="new 0 0 24 24" height="512" viewBox="0 0 24 24" width="512" xmlns="http://www.w3.org/2000/svg"><g><path d="m13 23h-2c-.827 0-1.5-.673-1.5-1.5v-7h-7c-.827 0-1.5-.673-1.5-1.5v-2c0-.827.673-1.5 1.5-1.5h7v-7c0-.827.673-1.5 1.5-1.5h2c.827 0 1.5.673 1.5 1.5v7h7c.827 0 1.5.673 1.5 1.5v2c0 .827-.673 1.5-1.5 1.5h-7v7c0 .827-.673 1.5-1.5 1.5zm-10.5-12.5c-.275 0-.5.224-.5.5v2c0 .276.225.5.5.5h7.5c.276 0 .5.224.5.5v7.5c0 .276.225.5.5.5h2c.275 0 .5-.224.5-.5v-7.5c0-.276.224-.5.5-.5h7.5c.275 0 .5-.224.5-.5v-2c0-.276-.225-.5-.5-.5h-7.5c-.276 0-.5-.224-.5-.5v-7.5c0-.276-.225-.5-.5-.5h-2c-.275 0-.5.224-.5.5v7.5c0 .276-.224.5-.5.5z"/></g></svg>