<svg id="light" enable-background="new 0 0 24 24" height="512" viewBox="0 0 24 24" width="512" xmlns="http://www.w3.org/2000/svg"><g><path d="m21.5 18h-2c-.276 0-.5-.224-.5-.5s.224-.5.5-.5h2c.827 0 1.5-.673 1.5-1.5v-7c0-.827-.673-1.5-1.5-1.5h-19c-.827 0-1.5.673-1.5 1.5v7c0 .827.673 1.5 1.5 1.5h2c.276 0 .5.224.5.5s-.224.5-.5.5h-2c-1.379 0-2.5-1.122-2.5-2.5v-7c0-1.378 1.121-2.5 2.5-2.5h19c1.379 0 2.5 1.122 2.5 2.5v7c0 1.378-1.121 2.5-2.5 2.5z"/></g><g><path d="m20.5 11c-.827 0-1.5-.673-1.5-1.5s.673-1.5 1.5-1.5 1.5.673 1.5 1.5-.673 1.5-1.5 1.5zm0-2c-.275 0-.5.224-.5.5s.225.5.5.5.5-.224.5-.5-.225-.5-.5-.5z"/></g><g><path d="m17.5 24h-11c-1.379 0-2.5-1.122-2.5-2.5v-8c0-.276.224-.5.5-.5h15c.276 0 .5.224.5.5v8c0 1.378-1.121 2.5-2.5 2.5zm-12.5-10v7.5c0 .827.673 1.5 1.5 1.5h11c.827 0 1.5-.673 1.5-1.5v-7.5z"/></g><g><path d="m16.5 18h-9c-.276 0-.5-.224-.5-.5s.224-.5.5-.5h9c.276 0 .5.224.5.5s-.224.5-.5.5z"/></g><g><path d="m16.5 21h-9c-.276 0-.5-.224-.5-.5s.224-.5.5-.5h9c.276 0 .5.224.5.5s-.224.5-.5.5z"/></g><g><path d="m19.5 7c-.276 0-.5-.224-.5-.5v-2.007c0-.667-.26-1.295-.732-1.768l-.992-.992c-.465-.466-1.11-.733-1.768-.733h-9.008c-.827 0-1.5.673-1.5 1.5v4c0 .276-.224.5-.5.5s-.5-.224-.5-.5v-4c0-1.378 1.121-2.5 2.5-2.5h9.008c.922 0 1.823.374 2.475 1.025l.992.992c.661.662 1.025 1.541 1.025 2.476v2.007c0 .276-.224.5-.5.5z"/></g></svg>