<svg id="light" enable-background="new 0 0 24 24" height="512" viewBox="0 0 24 24" width="512" xmlns="http://www.w3.org/2000/svg"><g><path d="m19.5 7c-1.93 0-3.5-1.57-3.5-3.5s1.57-3.5 3.5-3.5 3.5 1.57 3.5 3.5-1.57 3.5-3.5 3.5zm0-6c-1.379 0-2.5 1.122-2.5 2.5s1.121 2.5 2.5 2.5 2.5-1.122 2.5-2.5-1.121-2.5-2.5-2.5z"/></g><g><path d="m19.5 24c-1.93 0-3.5-1.57-3.5-3.5s1.57-3.5 3.5-3.5 3.5 1.57 3.5 3.5-1.57 3.5-3.5 3.5zm0-6c-1.379 0-2.5 1.122-2.5 2.5s1.121 2.5 2.5 2.5 2.5-1.122 2.5-2.5-1.121-2.5-2.5-2.5z"/></g><g><path d="m4.5 15.5c-1.93 0-3.5-1.57-3.5-3.5s1.57-3.5 3.5-3.5 3.5 1.57 3.5 3.5-1.57 3.5-3.5 3.5zm0-6c-1.379 0-2.5 1.122-2.5 2.5s1.121 2.5 2.5 2.5 2.5-1.122 2.5-2.5-1.121-2.5-2.5-2.5z"/></g><g><path d="m16.89 19.52c-.084 0-.169-.021-.246-.065l-9.779-5.54c-.24-.136-.325-.441-.188-.682.136-.241.443-.325.681-.188l9.779 5.54c.24.136.325.441.188.682-.093.162-.262.253-.435.253z"/></g><g><path d="m7.11 11.02c-.174 0-.343-.091-.435-.253-.137-.24-.052-.545.188-.682l9.779-5.54c.236-.135.545-.052.681.188.137.24.052.545-.188.682l-9.779 5.54c-.077.044-.162.065-.246.065z"/></g></svg>