<svg id="light" enable-background="new 0 0 24 24" height="512" viewBox="0 0 24 24" width="512" xmlns="http://www.w3.org/2000/svg"><g><path d="m21.5 24h-19c-1.379 0-2.5-1.122-2.5-2.5v-9c0-.276.224-.5.5-.5s.5.224.5.5v9c0 .827.673 1.5 1.5 1.5h19c.827 0 1.5-.673 1.5-1.5v-15c0-.827-.673-1.5-1.5-1.5h-4c-.276 0-.5-.224-.5-.5s.224-.5.5-.5h4c1.379 0 2.5 1.122 2.5 2.5v15c0 1.378-1.121 2.5-2.5 2.5z"/></g><g><path d="m17.5 16c-.187 0-.361-.104-.447-.276l-.84-1.68c-.94-1.878-2.825-3.044-4.923-3.044h-3.29v3.5c0 .202-.122.385-.309.462-.186.078-.401.035-.545-.108l-7-7c-.195-.195-.195-.512 0-.707l7-7c.144-.144.36-.187.545-.109.187.077.309.26.309.462v3.5h1.5c4.687 0 8.5 3.813 8.5 8.5v3c0 .232-.159.434-.385.487-.039.009-.077.013-.115.013zm-10-6h3.79c2.401 0 4.567 1.293 5.71 3.391v-.891c0-4.136-3.364-7.5-7.5-7.5h-2c-.276 0-.5-.224-.5-.5v-2.793l-5.793 5.793 5.793 5.793v-2.793c0-.276.224-.5.5-.5z"/></g></svg>