<svg id="light" enable-background="new 0 0 24 24" height="512" viewBox="0 0 24 24" width="512" xmlns="http://www.w3.org/2000/svg"><g><path d="m21.5 24h-19c-1.379 0-2.5-1.122-2.5-2.5v-15c0-1.378 1.121-2.5 2.5-2.5h4c.276 0 .5.224.5.5s-.224.5-.5.5h-4c-.827 0-1.5.673-1.5 1.5v15c0 .827.673 1.5 1.5 1.5h19c.827 0 1.5-.673 1.5-1.5v-9c0-.276.224-.5.5-.5s.5.224.5.5v9c0 1.378-1.121 2.5-2.5 2.5z"/></g><g><path d="m6.5 16c-.038 0-.076-.004-.115-.013-.226-.053-.385-.255-.385-.487v-3c0-4.687 3.813-8.5 8.5-8.5h1.5v-3.5c0-.202.122-.385.309-.462s.402-.035.545.108l7 7c.195.195.195.512 0 .707l-7 7c-.143.143-.359.186-.545.108-.187-.076-.309-.259-.309-.461v-3.5h-3.29c-2.098 0-3.983 1.166-4.923 3.043l-.84 1.68c-.086.173-.26.277-.447.277zm8-11c-4.136 0-7.5 3.364-7.5 7.5v.891c1.142-2.098 3.309-3.391 5.71-3.391h3.79c.276 0 .5.224.5.5v2.793l5.793-5.793-5.793-5.793v2.793c0 .276-.224.5-.5.5z"/></g></svg>