<svg id="light" enable-background="new 0 0 24 24" height="512" viewBox="0 0 24 24" width="512" xmlns="http://www.w3.org/2000/svg"><g><path d="m12 15c-1.654 0-3-1.346-3-3s1.346-3 3-3 3 1.346 3 3-1.346 3-3 3zm0-5c-1.103 0-2 .897-2 2s.897 2 2 2 2-.897 2-2-.897-2-2-2z"/></g><g><path d="m20.13 20.63c-.128 0-.256-.049-.354-.146-.195-.195-.195-.512 0-.707 2.079-2.079 3.224-4.841 3.224-7.777 0-6.065-4.935-11-11-11s-11 4.935-11 11c0 2.936 1.145 5.698 3.224 7.776.195.195.195.512 0 .707s-.512.195-.707 0c-2.268-2.267-3.517-5.28-3.517-8.483 0-6.617 5.383-12 12-12s12 5.383 12 12c0 3.203-1.249 6.216-3.517 8.483-.097.098-.225.147-.353.147z"/></g><g><path d="m17.3 17.8c-.128 0-.256-.049-.354-.146-.195-.195-.195-.512 0-.707 1.325-1.324 2.054-3.081 2.054-4.947 0-3.86-3.14-7-7-7s-7 3.14-7 7c0 1.866.729 3.623 2.054 4.946.195.195.195.512 0 .707s-.512.195-.707 0c-1.514-1.512-2.347-3.52-2.347-5.653 0-4.411 3.589-8 8-8s8 3.589 8 8c0 2.133-.833 4.141-2.347 5.653-.097.098-.225.147-.353.147z"/></g><g><path d="m12 24c-.276 0-.5-.224-.5-.5v-9c0-.276.224-.5.5-.5s.5.224.5.5v9c0 .276-.224.5-.5.5z"/></g></svg>