<svg id="light" enable-background="new 0 0 24 24" height="512" viewBox="0 0 24 24" width="512" xmlns="http://www.w3.org/2000/svg"><g><path d="m18.5 24h-13c-1.378 0-2.5-1.122-2.5-2.5v-14c0-.276.224-.5.5-.5s.5.224.5.5v14c0 .827.673 1.5 1.5 1.5h13c.827 0 1.5-.673 1.5-1.5v-14c0-.276.224-.5.5-.5s.5.224.5.5v14c0 1.378-1.122 2.5-2.5 2.5z"/></g><g><path d="m22.5 8h-21c-.276 0-.5-.224-.5-.5v-2c0-1.378 1.122-2.5 2.5-2.5h17c1.378 0 2.5 1.122 2.5 2.5v2c0 .276-.224.5-.5.5zm-20.5-1h20v-1.5c0-.827-.673-1.5-1.5-1.5h-17c-.827 0-1.5.673-1.5 1.5z"/></g><g><path d="m16.5 4c-.276 0-.5-.224-.5-.5v-2c0-.276-.224-.5-.5-.5h-7c-.276 0-.5.224-.5.5v2c0 .276-.224.5-.5.5s-.5-.224-.5-.5v-2c0-.827.673-1.5 1.5-1.5h7c.827 0 1.5.673 1.5 1.5v2c0 .276-.224.5-.5.5z"/></g><g><path d="m12 20c-.276 0-.5-.224-.5-.5v-8c0-.276.224-.5.5-.5s.5.224.5.5v8c0 .276-.224.5-.5.5z"/></g><g><path d="m7.5 20c-.276 0-.5-.224-.5-.5v-8c0-.276.224-.5.5-.5s.5.224.5.5v8c0 .276-.224.5-.5.5z"/></g><g><path d="m16.5 20c-.276 0-.5-.224-.5-.5v-8c0-.276.224-.5.5-.5s.5.224.5.5v8c0 .276-.224.5-.5.5z"/></g></svg>