<svg id="light" enable-background="new 0 0 24 24" height="512" viewBox="0 0 24 24" width="512" xmlns="http://www.w3.org/2000/svg"><g><path d="m2.5 24c-.276 0-.5-.224-.5-.5v-23c0-.276.224-.5.5-.5s.5.224.5.5v23c0 .276-.224.5-.5.5z"/></g><g><path d="m13.5 13h-11c-.276 0-.5-.224-.5-.5v-12c0-.276.224-.5.5-.5h11c.827 0 1.5.673 1.5 1.5v10c0 .827-.673 1.5-1.5 1.5zm-10.5-1h10.5c.275 0 .5-.224.5-.5v-10c0-.276-.225-.5-.5-.5h-10.5z"/></g><g><path d="m20.5 17h-10c-.827 0-1.5-.673-1.5-1.5v-3c0-.276.224-.5.5-.5s.5.224.5.5v3c0 .276.225.5.5.5h10c.275 0 .5-.224.5-.5v-10c0-.276-.225-.5-.5-.5h-6c-.276 0-.5-.224-.5-.5s.224-.5.5-.5h6c.827 0 1.5.673 1.5 1.5v10c0 .827-.673 1.5-1.5 1.5z"/></g></svg>