<svg id="Line" height="512" viewBox="0 0 64 64" width="512" xmlns="http://www.w3.org/2000/svg"><path d="m20 45h24a8 8 0 0 1 8 8v8a0 0 0 0 1 0 0h-40a0 0 0 0 1 0 0v-8a8 8 0 0 1 8-8z" fill="#4a80aa"/><g fill="#ffcbbe"><path d="m38 48-6 5-6-5v-15h12z"/><path d="m17 20h2a0 0 0 0 1 0 0v7a0 0 0 0 1 0 0h-2a2 2 0 0 1 -2-2v-3a2 2 0 0 1 2-2z"/><path d="m47 20h2a0 0 0 0 1 0 0v7a0 0 0 0 1 0 0h-2a2 2 0 0 1 -2-2v-3a2 2 0 0 1 2-2z" transform="matrix(-1 0 0 -1 94 47)"/></g><rect fill="#ffddce" height="34" rx="13" width="26" x="19" y="7"/><path d="m45 17v3h-3l-2-6h-16l-2 6h-3v-3c0-2.58-1.29-8.98 0-11 1.22-1.91 4.98.52 7-.54 1.79-.93 3.84-2.46 6-2.46 1.4 0 2.74 1.22 4 1.63 1.98.64 3.75-.26 5.19 1.18 2.35 2.35 3.81 7.6 3.81 11.19z" fill="#3e3d42"/><path d="m24 45h-4a8 8 0 0 0 -8 8v8h12z" fill="#365e7d"/><path d="m44 45h-4v16h12v-8a8 8 0 0 0 -8-8z" fill="#365e7d"/><path d="m22 45-2 6h2l-2 4 2 6h5l-1-16z" fill="#e1ecfd"/><path d="m42 45 2 6h-2l2 4-2 6h-5l1-16z" fill="#e1ecfd"/><path d="m26 25a1 1 0 0 0 1-1v-2a1 1 0 0 0 -2 0v2a1 1 0 0 0 1 1z" fill="#3e3d42"/><path d="m38 25a1 1 0 0 0 1-1v-2a1 1 0 0 0 -2 0v2a1 1 0 0 0 1 1z" fill="#3e3d42"/><path d="m45 18h-26a1 1 0 0 0 0 2h2v5a3 3 0 0 0 3 3h4a3 3 0 0 0 3-3v-5h2v5a3 3 0 0 0 3 3h4a3 3 0 0 0 3-3v-5h2a1 1 0 0 0 0-2zm-16 7a1 1 0 0 1 -1 1h-4a1 1 0 0 1 -1-1v-5h6zm12 0a1 1 0 0 1 -1 1h-4a1 1 0 0 1 -1-1v-5h6z" fill="#57565c"/></svg>