<svg id="Line" height="512" viewBox="0 0 64 64" width="512" xmlns="http://www.w3.org/2000/svg"><path d="m20 45h24a8 8 0 0 1 8 8v8a0 0 0 0 1 0 0h-40a0 0 0 0 1 0 0v-8a8 8 0 0 1 8-8z" fill="#5bcbfa"/><path d="m29 49h6l1 12h-8z" fill="#ec455a"/><path d="m23 45 2 8 5-4-1-4z" fill="#fff"/><path d="m41 45-2 8-5-4 1-4z" fill="#fff"/><path d="m38 45-6 6-6-6 1-12h10z" fill="#ffcbbe"/><rect fill="#ffddce" height="34" rx="13" width="26" x="19" y="7"/><path d="m18 19v-1.62a14.252 14.252 0 0 1 13-14.345 14 14 0 0 1 15 13.965v2h-3l-2.7-6.292a3.989 3.989 0 0 0 -.848-1.253l-1.471-1.474a1 1 0 0 0 -1.6.26l-.274.548a4 4 0 0 1 -3.579 2.211h-1.056a4 4 0 0 1 -3.578-2.211l-.274-.548a1 1 0 0 0 -1.6-.26l-1.474 1.474a3.989 3.989 0 0 0 -.848 1.253l-2.698 6.292z" fill="#3e3d42"/><path d="m17 19h2a0 0 0 0 1 0 0v7a0 0 0 0 1 0 0h-2a2 2 0 0 1 -2-2v-3a2 2 0 0 1 2-2z" fill="#ffcbbe"/><path d="m47 19h2a0 0 0 0 1 0 0v7a0 0 0 0 1 0 0h-2a2 2 0 0 1 -2-2v-3a2 2 0 0 1 2-2z" fill="#ffcbbe" transform="matrix(-1 0 0 -1 94 45)"/><path d="m26 25a1 1 0 0 0 1-1v-2a1 1 0 0 0 -2 0v2a1 1 0 0 0 1 1z" fill="#3e3d42"/><path d="m38 25a1 1 0 0 0 1-1v-2a1 1 0 0 0 -2 0v2a1 1 0 0 0 1 1z" fill="#3e3d42"/><path d="m45 18h-26a1 1 0 0 0 0 2h2v5a3 3 0 0 0 3 3h4a3 3 0 0 0 3-3v-5h2v5a3 3 0 0 0 3 3h4a3 3 0 0 0 3-3v-5h2a1 1 0 0 0 0-2zm-16 7a1 1 0 0 1 -1 1h-4a1 1 0 0 1 -1-1v-5h6zm12 0a1 1 0 0 1 -1 1h-4a1 1 0 0 1 -1-1v-5h6z" fill="#57565c"/></svg>