<svg id="Line" height="512" viewBox="0 0 64 64" width="512" xmlns="http://www.w3.org/2000/svg"><path d="m29 3h6a14 14 0 0 1 14 14v33a0 0 0 0 1 0 0h-34a0 0 0 0 1 0 0v-33a14 14 0 0 1 14-14z" fill="#3e3d42"/><path d="m20 45h24a8 8 0 0 1 8 8v8a0 0 0 0 1 0 0h-40a0 0 0 0 1 0 0v-8a8 8 0 0 1 8-8z" fill="#b4cdf8"/><path d="m38 45-6 9-6-9 1-12h10z" fill="#ffcbbe"/><path d="m21 15h22a2 2 0 0 1 2 2v11a13 13 0 0 1 -13 13 13 13 0 0 1 -13-13v-11a2 2 0 0 1 2-2z" fill="#ffddce"/><g fill="#3e3d42"><path d="m27 21a1 1 0 0 0 -1 1v2a1 1 0 0 0 2 0v-2a1 1 0 0 0 -1-1z"/><path d="m37 21a1 1 0 0 0 -1 1v2a1 1 0 0 0 2 0v-2a1 1 0 0 0 -1-1z"/></g></svg>