<svg id="Line" height="512" viewBox="0 0 64 64" width="512" xmlns="http://www.w3.org/2000/svg"><path d="m54 38.5c0-3.494-1.876-6.7-5-9.2v-12.3a14 14 0 0 0 -14-14h-6a14 14 0 0 0 -14 14v12.3c-3.124 2.5-5 5.709-5 9.2s1.876 6.7 5 9.2l3.607 2.3a29.873 29.873 0 0 0 13.393 3 29.873 29.873 0 0 0 13.393-3l3.607-2.3c3.124-2.5 5-5.706 5-9.2z" fill="#3e3d42"/><path d="m20 44h24a8 8 0 0 1 8 8v9a0 0 0 0 1 0 0h-40a0 0 0 0 1 0 0v-9a8 8 0 0 1 8-8z" fill="#f3b1b2"/><path d="m32 50a5.658 5.658 0 0 1 -5.648-5.99l.648-11.01h10l.648 11.01a5.658 5.658 0 0 1 -5.648 5.99z" fill="#ffcbbe"/><path d="m45 17v11a13 13 0 0 1 -26 0v-10h12a6 6 0 0 0 5.19-3h6.81a2.006 2.006 0 0 1 2 2z" fill="#ffddce"/><g fill="#3e3d42"><path d="m27 21a1 1 0 0 0 -1 1v2a1 1 0 0 0 2 0v-2a1 1 0 0 0 -1-1z"/><path d="m37 21a1 1 0 0 0 -1 1v2a1 1 0 0 0 2 0v-2a1 1 0 0 0 -1-1z"/></g></svg>