<svg id="Line" height="512" viewBox="0 0 64 64" width="512" xmlns="http://www.w3.org/2000/svg"><path d="m49 29.3v-12.3a14 14 0 0 0 -14-14h-6a14 14 0 0 0 -14 14v11.106a6.978 6.978 0 0 0 -.554 9.143 8 8 0 0 0 5.554 13.751 7.889 7.889 0 0 0 .788-.04 30.84 30.84 0 0 0 11.212 2.04 29.863 29.863 0 0 0 13.39-3l3.61-2.3c3.12-2.5 5-5.71 5-9.2s-1.88-6.7-5-9.2z" fill="#3e3d42"/><path d="m44 45h-6l-1-12h-10l-1 12h-6a8 8 0 0 0 -8 8v8h40v-8a8 8 0 0 0 -8-8z" fill="#ffcbbe"/><path d="m44.94 28.86a13.2 13.2 0 0 1 -12.31 12.13 13 13 0 0 1 -13.63-12.99v-1a12 12 0 0 1 12-12h1.04a15 15 0 0 0 12.9 13.86z" fill="#ffddce"/><path d="m42 53.29v7.71h-20v-7.71a18.434 18.434 0 0 0 10 2.71 18.434 18.434 0 0 0 10-2.71z" fill="#ec455a"/><path d="m22 45v16h-10v-8a8 8 0 0 1 8-8z" fill="#5bcbfa"/><path d="m52 53v8h-10v-16h2a8 8 0 0 1 8 8z" fill="#5bcbfa"/><path d="m27 22a1 1 0 0 0 -1 1v2a1 1 0 0 0 2 0v-2a1 1 0 0 0 -1-1z" fill="#3e3d42"/></svg>