<svg id="Line" height="512" viewBox="0 0 64 64" width="512" xmlns="http://www.w3.org/2000/svg"><path d="m35 3h-6a14 14 0 0 0 -14 14v20a8 8 0 0 0 8 8h18a8 8 0 0 0 8-8v-20a14 14 0 0 0 -14-14z" fill="#3e3d42"/><path d="m52 52v9h-40v-9a7.985 7.985 0 0 1 5.12-7.46 7.845 7.845 0 0 1 2.88-.54h24a8 8 0 0 1 8 8z" fill="#a094f7"/><path d="m32 50a5.658 5.658 0 0 1 -5.648-5.99l.648-11.01h10l.648 11.01a5.658 5.658 0 0 1 -5.648 5.99z" fill="#ffcbbe"/><g fill="#ffddce"><path d="m20 54v7h-8v-9a7.985 7.985 0 0 1 5.12-7.46 16.852 16.852 0 0 1 2.88 9.46z"/><path d="m44 54v7h8v-9a7.985 7.985 0 0 0 -5.12-7.46 16.852 16.852 0 0 0 -2.88 9.46z"/><path d="m45 20.46v7.54a13 13 0 0 1 -26 0v-7.54a3.98 3.98 0 0 0 2-3.46v-2h22v2a3.98 3.98 0 0 0 2 3.46z"/></g><path d="m27 25a1 1 0 0 0 1-1v-2a1 1 0 0 0 -2 0v2a1 1 0 0 0 1 1z" fill="#3e3d42"/><path d="m37 25a1 1 0 0 0 1-1v-2a1 1 0 0 0 -2 0v2a1 1 0 0 0 1 1z" fill="#3e3d42"/></svg>