<svg id="Line" height="512" viewBox="0 0 64 64" width="512" xmlns="http://www.w3.org/2000/svg"><path d="m20 44h24a8 8 0 0 1 8 8v9a0 0 0 0 1 0 0h-40a0 0 0 0 1 0 0v-9a8 8 0 0 1 8-8z" fill="#ec455a"/><g fill="#821813"><path d="m31 49h2v12h-2z"/><path d="m28 52h8v2h-8z"/><path d="m28 56h8v2h-8z"/></g><circle cx="18" cy="9" fill="#3e3d42" r="6"/><circle cx="46" cy="9" fill="#3e3d42" r="6"/><path d="m42 37h-20a7 7 0 0 1 -7-7v-10a17 17 0 0 1 17-17 17 17 0 0 1 17 17v10a7 7 0 0 1 -7 7z" fill="#57565c"/><path d="m32 50a5.658 5.658 0 0 1 -5.648-5.99l.648-11.01h10l.648 11.01a5.658 5.658 0 0 1 -5.648 5.99z" fill="#ffcbbe"/><path d="m32 41a13 13 0 0 1 -13-13v-9a2 2 0 0 1 2-2h13l2-4 3 4h4a2 2 0 0 1 2 2v9a13 13 0 0 1 -13 13z" fill="#ffddce"/><path d="m27 21a1 1 0 0 0 -1 1v2a1 1 0 0 0 2 0v-2a1 1 0 0 0 -1-1z" fill="#3e3d42"/><path d="m37 25a1 1 0 0 0 1-1v-2a1 1 0 0 0 -2 0v2a1 1 0 0 0 1 1z" fill="#3e3d42"/></svg>