<svg id="Line" height="512" viewBox="0 0 64 64" width="512" xmlns="http://www.w3.org/2000/svg"><path d="m20 45h24a8 8 0 0 1 8 8v8a0 0 0 0 1 0 0h-40a0 0 0 0 1 0 0v-8a8 8 0 0 1 8-8z" fill="#5bcbfa"/><path d="m38 45-6 11-6-11 1-12h10z" fill="#ffcbbe"/><path d="m42 37h-20a7 7 0 0 1 -7-7v-13a14 14 0 0 1 14-14h6a14 14 0 0 1 14 14v13a7 7 0 0 1 -7 7z" fill="#3e3d42"/><path d="m32 41a13 13 0 0 1 -13-13v-9a2 2 0 0 1 2-2h13l2-4 3 4h4a2 2 0 0 1 2 2v9a13 13 0 0 1 -13 13z" fill="#ffddce"/><g fill="#3e3d42"><path d="m27 21a1 1 0 0 0 -1 1v2a1 1 0 0 0 2 0v-2a1 1 0 0 0 -1-1z"/><path d="m37 25a1 1 0 0 0 1-1v-2a1 1 0 0 0 -2 0v2a1 1 0 0 0 1 1z"/></g></svg>