<svg id="Line" height="512" viewBox="0 0 64 64" width="512" xmlns="http://www.w3.org/2000/svg"><path d="m54.88 26c0 1.97-1.989 3.652-2.475 5.469-.5 1.88.365 4.328-.588 5.974-.966 1.669-3.528 2.137-4.883 3.491s-1.823 3.918-3.492 4.884c-1.646.952-4.094.085-5.973.587-1.817.486-3.5 2.475-5.469 2.475s-3.652-1.989-5.469-2.475c-1.88-.5-4.328.365-5.974-.588-1.669-.966-2.137-3.528-3.491-4.883s-3.918-1.823-4.884-3.492c-.952-1.646-.085-4.094-.587-5.973-.486-1.817-2.475-3.499-2.475-5.469s1.989-3.652 2.475-5.469c.5-1.88-.365-4.328.588-5.974.966-1.669 3.528-2.137 4.883-3.491s1.823-3.918 3.492-4.884c1.642-.952 4.094-.082 5.973-.582 1.817-.491 3.499-2.48 5.469-2.48s3.652 1.989 5.469 2.48c1.88.5 4.328-.365 5.974.588 1.669.966 2.137 3.528 3.491 4.883s3.918 1.823 4.884 3.492c.952 1.646.085 4.094.587 5.973.486 1.812 2.475 3.494 2.475 5.464z" fill="#3e3d42"/><path d="m20 44h24a8 8 0 0 1 8 8v9a0 0 0 0 1 0 0h-40a0 0 0 0 1 0 0v-9a8 8 0 0 1 8-8z" fill="#ffddce"/><path d="m20 44h24v17h-24z" fill="#eb9a43"/><g fill="#ffcbbe"><path d="m32 50a5.658 5.658 0 0 1 -5.648-5.99l.648-11.01h10l.648 11.01a5.658 5.658 0 0 1 -5.648 5.99z"/><path d="m47 21h2a0 0 0 0 1 0 0v7a0 0 0 0 1 0 0h-2a2 2 0 0 1 -2-2v-3a2 2 0 0 1 2-2z" transform="matrix(-1 0 0 -1 94 49)"/><path d="m17 21h2a0 0 0 0 1 0 0v7a0 0 0 0 1 0 0h-2a2 2 0 0 1 -2-2v-3a2 2 0 0 1 2-2z"/></g><path d="m44.92 18h-4.92a5.99 5.99 0 0 1 -5.91-5h-9.09a6 6 0 0 0 -6 6v9a13 13 0 0 0 26 0v-9a6.634 6.634 0 0 0 -.08-1z" fill="#ffddce"/><path d="m27 25a1 1 0 0 0 1-1v-2a1 1 0 0 0 -2 0v2a1 1 0 0 0 1 1z" fill="#3e3d42"/><path d="m37 25a1 1 0 0 0 1-1v-2a1 1 0 0 0 -2 0v2a1 1 0 0 0 1 1z" fill="#3e3d42"/></svg>