<svg id="Line" height="512" viewBox="0 0 64 64" width="512" xmlns="http://www.w3.org/2000/svg"><path d="m55.32 26c0 1.683-2.8 3.03-3.154 4.605-.37 1.626 1.556 4.05.848 5.517-.719 1.491-3.822 1.491-4.845 2.772s-.342 4.311-1.629 5.339-4.075-.315-5.566.4c-1.467.708-2.159 3.734-3.785 4.1-1.574.358-3.506-2.06-5.189-2.06s-3.615 2.418-5.19 2.06c-1.626-.37-2.318-3.4-3.785-4.1-1.491-.72-4.286.618-5.566-.405s-.6-4.052-1.629-5.339-4.126-1.281-4.845-2.772c-.708-1.467 1.219-3.891.849-5.517-.358-1.57-3.154-2.917-3.154-4.6s2.8-3.03 3.154-4.605c.37-1.626-1.556-4.05-.848-5.517.719-1.491 3.822-1.491 4.845-2.772s.342-4.306 1.629-5.339 4.075.315 5.566-.4c1.467-.708 2.159-3.734 3.785-4.1 1.574-.367 3.506 2.053 5.189 2.053s3.615-2.42 5.19-2.06c1.626.37 2.318 3.4 3.785 4.1 1.491.72 4.286-.618 5.566.4s.6 4.052 1.629 5.339 4.126 1.281 4.845 2.772c.708 1.467-1.219 3.891-.849 5.517.358 1.582 3.154 2.929 3.154 4.612z" fill="#3e3d42"/><path d="m20 44h24a8 8 0 0 1 8 8v9a0 0 0 0 1 0 0h-40a0 0 0 0 1 0 0v-9a8 8 0 0 1 8-8z" fill="#b9b1f1"/><path d="m31 48h2v13h-2z" fill="#896ff7"/><path d="m32 50a5.658 5.658 0 0 1 -5.648-5.99l.648-11.01h10l.648 11.01a5.658 5.658 0 0 1 -5.648 5.99z" fill="#ffcbbe"/><path d="m44.94 28.86a13.2 13.2 0 0 1 -12.31 12.13 13 13 0 0 1 -13.63-12.99v-1a12 12 0 0 1 12-12h1.04a15 15 0 0 0 12.9 13.86z" fill="#ffddce"/><path d="m27 21a1 1 0 0 0 -1 1v2a1 1 0 0 0 2 0v-2a1 1 0 0 0 -1-1z" fill="#3e3d42"/></svg>