<svg id="Line" height="512" viewBox="0 0 64 64" width="512" xmlns="http://www.w3.org/2000/svg"><path d="m43 27 10 6v-20a6 6 0 0 0 -6-6h-4z" fill="#e28086"/><path d="m21 26-10 6v-20a6 6 0 0 1 6-6h4z" fill="#e28086"/><path d="m49 40-8-6h-18l-8 7v-28a10 10 0 0 1 10-10h14a10 10 0 0 1 10 10z" fill="#f3b1b2"/><path d="m20 44h24a8 8 0 0 1 8 8v9a0 0 0 0 1 0 0h-40a0 0 0 0 1 0 0v-9a8 8 0 0 1 8-8z" fill="#f09898"/><path d="m33 61h-2l-9-17h20z" fill="#fff"/><path d="m32 50a5.658 5.658 0 0 1 -5.648-5.99l.648-11.01h10l.648 11.01a5.658 5.658 0 0 1 -5.648 5.99z" fill="#ffcbbe"/><path d="m45 21v7a13 13 0 0 1 -26 0v-9.35a22.468 22.468 0 0 0 4 .35c5.01 0 9.4-1.6 11.87-4h1.13a6 6 0 0 0 6 6z" fill="#ffddce"/><g fill="#3e3d42"><path d="m27 22a1 1 0 0 0 -1 1v2a1 1 0 0 0 2 0v-2a1 1 0 0 0 -1-1z"/><path d="m37 22a1 1 0 0 0 -1 1v2a1 1 0 0 0 2 0v-2a1 1 0 0 0 -1-1z"/></g></svg>