<svg id="Line" height="512" viewBox="0 0 64 64" width="512" xmlns="http://www.w3.org/2000/svg"><circle cx="21" cy="10" fill="#2d2d30" r="7"/><path d="m18.441 41.791-5.868 4.109a1 1 0 0 1 -1.573-.821v-27.079a6 6 0 0 1 6-6h4v24.876a6 6 0 0 1 -2.559 4.915z" fill="#3e3d42"/><path d="m45 29h-30v-8a16 16 0 0 1 16-16h2a16 16 0 0 1 16 16v4a4 4 0 0 1 -4 4z" fill="#57565c"/><path d="m20 47h24a8 8 0 0 1 8 8v6a0 0 0 0 1 0 0h-40a0 0 0 0 1 0 0v-6a8 8 0 0 1 8-8z" fill="#dd636e"/><g fill="#ffcbbe"><path d="m32 53a5.658 5.658 0 0 1 -5.648-5.99l.648-11.01h10l.648 11.01a5.658 5.658 0 0 1 -5.648 5.99z"/><path d="m17 24h2a0 0 0 0 1 0 0v7a0 0 0 0 1 0 0h-2a2 2 0 0 1 -2-2v-3a2 2 0 0 1 2-2z"/><path d="m43 31h4a2 2 0 0 0 2-2v-3a2 2 0 0 0 -2-2h-4z"/></g><path d="m32 44a13 13 0 0 1 -13-13v-7l10-12v9h13l3 3v7a13 13 0 0 1 -13 13z" fill="#ffddce"/><path d="m27 24a1 1 0 0 0 -1 1v2a1 1 0 0 0 2 0v-2a1 1 0 0 0 -1-1z" fill="#3e3d42"/><path d="m37 28a1 1 0 0 0 1-1v-2a1 1 0 0 0 -2 0v2a1 1 0 0 0 1 1z" fill="#3e3d42"/></svg>