<svg id="Line" height="512" viewBox="0 0 64 64" width="512" xmlns="http://www.w3.org/2000/svg"><path d="m49 48h-34v-31a14 14 0 0 1 14-14h6a14 14 0 0 1 14 14z" fill="#3e3d42"/><path d="m20 44h24a8 8 0 0 1 8 8v8a0 0 0 0 1 0 0h-40a0 0 0 0 1 0 0v-8a8 8 0 0 1 8-8z" fill="#5bcbfa"/><path d="m32 50a5.658 5.658 0 0 1 -5.648-5.99l.648-11.01h10l.648 11.01a5.658 5.658 0 0 1 -5.648 5.99z" fill="#ffcbbe"/><path d="m37 36.985v18.03a.985.985 0 0 0 .985.985h2.03a8.985 8.985 0 0 0 8.985-8.985v-10.03a.985.985 0 0 0 -.985-.985h-10.03a.985.985 0 0 0 -.985.985z" fill="#3e3d42"/><path d="m27 37.27v13.73a3.992 3.992 0 0 0 3 3.87v.13h-3a8 8 0 0 1 -8-8v-10z" fill="#3e3d42"/><path d="m23 20.11-1.764 14.277a3.96 3.96 0 0 0 1.322 3.5 12.95 12.95 0 0 0 8.711 3.113 13.265 13.265 0 0 0 12.731-13.4v-10.6a2.006 2.006 0 0 0 -2-2l-5-.9v-6.1l-4 6-8 .55z" fill="#ffddce"/><g fill="#3e3d42"><path d="m27 21a1 1 0 0 0 -1 1v2a1 1 0 0 0 2 0v-2a1 1 0 0 0 -1-1z"/><path d="m37 25a1 1 0 0 0 1-1v-2a1 1 0 0 0 -2 0v2a1 1 0 0 0 1 1z"/></g></svg>