<svg id="Line" height="512" viewBox="0 0 64 64" width="512" xmlns="http://www.w3.org/2000/svg"><path d="m29 3h6a14 14 0 0 1 14 14v33a0 0 0 0 1 0 0h-34a0 0 0 0 1 0 0v-33a14 14 0 0 1 14-14z" fill="#3e3d42"/><path d="m20 45h24a8 8 0 0 1 8 8v8a0 0 0 0 1 0 0h-40a0 0 0 0 1 0 0v-8a8 8 0 0 1 8-8z" fill="#5bcbfa"/><path d="m32 50a5.658 5.658 0 0 1 -5.648-5.99l.648-11.01h10l.648 11.01a5.658 5.658 0 0 1 -5.648 5.99z" fill="#ffcbbe"/><path d="m15 35h12v26h-12z" fill="#3e3d42"/><circle cx="32" cy="54" fill="#48a3d2" r="1"/><circle cx="32" cy="58" fill="#48a3d2" r="1"/><path d="m37 38h12v23h-12z" fill="#3e3d42"/><path d="m45 17v11a13 13 0 0 1 -26 0v-6.03a18.046 18.046 0 0 0 6.73-4.24 17.84 17.84 0 0 0 3.63-5.23 11.12 11.12 0 0 1 2.29.23l11.35 2.27a2.006 2.006 0 0 1 2 2z" fill="#ffddce"/><g fill="#3e3d42"><path d="m27 21a1 1 0 0 0 -1 1v2a1 1 0 0 0 2 0v-2a1 1 0 0 0 -1-1z"/><path d="m37 21a1 1 0 0 0 -1 1v2a1 1 0 0 0 2 0v-2a1 1 0 0 0 -1-1z"/></g></svg>