<svg id="Line" height="512" viewBox="0 0 64 64" width="512" xmlns="http://www.w3.org/2000/svg"><path d="m44 46h-7v-8h-10v8h-7a8 8 0 0 0 -8 8v8h40v-8a8 8 0 0 0 -8-8z" fill="#f7d880"/><path d="m27 36h10v8h-10z" fill="#ffcbbe"/><path d="m50.656 40h-37.312a1 1 0 0 1 -.958-1.287l2.445-8.151a4 4 0 0 0 .169-1.149v-12.413a14 14 0 0 1 14-14h6a14 14 0 0 1 14 14v12.413a4 4 0 0 0 .169 1.149l2.445 8.151a1 1 0 0 1 -.958 1.287z" fill="#3e3d42"/><path d="m45 17v11a13 13 0 0 1 -26 0v-6.03a18.046 18.046 0 0 0 6.73-4.24 17.84 17.84 0 0 0 3.63-5.23 11.12 11.12 0 0 1 2.29.23l11.35 2.27a2.006 2.006 0 0 1 2 2z" fill="#ffddce"/><path d="m27 21a1 1 0 0 0 -1 1v2a1 1 0 0 0 2 0v-2a1 1 0 0 0 -1-1z" fill="#3e3d42"/><path d="m37 25a1 1 0 0 0 1-1v-2a1 1 0 0 0 -2 0v2a1 1 0 0 0 1 1z" fill="#3e3d42"/><g fill="#fae058"><path d="m29 44h2v2h-2z"/><path d="m33 44h2v2h-2z"/></g></svg>