<svg id="Line" height="512" viewBox="0 0 64 64" width="512" xmlns="http://www.w3.org/2000/svg"><path d="m50 53h-36l2-35a15 15 0 0 1 15-15h2a15 15 0 0 1 15 15z" fill="#3e3d42"/><path d="m20 44h24a8 8 0 0 1 8 8v9a0 0 0 0 1 0 0h-40a0 0 0 0 1 0 0v-9a8 8 0 0 1 8-8z" fill="#5bcbfa"/><path d="m42 44a10 10 0 0 1 -20 0z" fill="#fff"/><path d="m32 50a5.658 5.658 0 0 1 -5.648-5.99l.648-11.01h10l.648 11.01a5.658 5.658 0 0 1 -5.648 5.99z" fill="#ffcbbe"/><path d="m19 21a2 2 0 0 1 2-2h3a8.989 8.989 0 0 0 8-4.89 8.989 8.989 0 0 0 8 4.89h3a2 2 0 0 1 2 2v6.633a13.242 13.242 0 0 1 -12.372 13.352 13 13 0 0 1 -13.628-12.985z" fill="#ffddce"/><g fill="#3e3d42"><path d="m27 21a1 1 0 0 0 -1 1v2a1 1 0 0 0 2 0v-2a1 1 0 0 0 -1-1z"/><path d="m37 25a1 1 0 0 0 1-1v-2a1 1 0 0 0 -2 0v2a1 1 0 0 0 1 1z"/></g></svg>