<svg id="Line" height="512" viewBox="0 0 64 64" width="512" xmlns="http://www.w3.org/2000/svg"><path d="m53.687 28.891c-.039-1.272.68-2.657.477-3.989-.192-1.266-1.282-2.38-1.629-3.675s.04-2.8-.426-4c-.491-1.254-1.8-2.1-2.408-3.216-.641-1.194-.63-2.755-1.374-3.776-.807-1.106-2.3-1.553-3.195-2.425-.992-.965-1.518-2.439-2.579-3.079-1.189-.716-2.71-.442-3.927-.693-1.311-.271-2.645-1.073-3.915-.733a4.235 4.235 0 0 0 -1.94 1.445 27.751 27.751 0 0 0 -2.931-.632c-1.271-.34-2.557-1.175-3.868-.905-1.217.251-2.133 1.523-3.323 2.239-1.06.639-2.608.79-3.6 1.755-.9.872-1.121 2.418-1.928 3.524-.744 1.021-2.154 1.687-2.8 2.882-.6 1.121-.391 2.666-.882 3.92-.466 1.193-1.676 2.178-2.022 3.473s.207 2.753.015 4.019c-.2 1.332-1.158 2.565-1.2 3.838-.042 1.355.846 2.637.98 3.893.146 1.361-.431 2.813-.091 4.016.376 1.33 1.64 2.234 2.238 3.316.672 1.216.829 2.775 1.758 3.6 1 .891 2.532.811 3.8 1.151s2.557 1.176 3.868.9c1.217-.251 2.134-1.522 3.323-2.239 1.06-.639 2.608-.789 3.6-1.755.9-.872 1.121-2.418 1.928-3.523a4.009 4.009 0 0 1 .341-.4 3.532 3.532 0 0 0 .453.9c.807 1.106 2.3 1.553 3.2 2.425.991.966 1.518 2.44 2.578 3.079 1.189.717 2.71.443 3.927.694 1.311.271 2.645 1.073 3.916.732s2.025-1.7 3.025-2.593c.929-.826 2.383-1.349 3.054-2.565.6-1.083.316-2.622.693-3.952.34-1.2 1.409-2.337 1.555-3.7.141-1.249-.649-2.595-.691-3.951z" fill="#3e3d42"/><path d="m20 45h24a8 8 0 0 1 8 8v8a0 0 0 0 1 0 0h-40a0 0 0 0 1 0 0v-8a8 8 0 0 1 8-8z" fill="#5bcbfa"/><path d="m38 45-6 11-6-11 1-12h10z" fill="#ffcbbe"/><path d="m21.08 35.04a10.921 10.921 0 0 0 .14-2.28c-.13-1.26-1.02-2.54-.98-3.89.04-1.28.99-2.51 1.2-3.84.19-1.27-.37-2.73-.02-4.02s1.56-2.28 2.02-3.47c.49-1.26.28-2.8.89-3.92a.209.209 0 0 1 .04-.06l.2-.09a11.947 11.947 0 0 1 7.08-.74l11.35 2.27a2.006 2.006 0 0 1 2 2v11a12.994 12.994 0 0 1 -23.92 7.04 10.921 10.921 0 0 0 .14-2.28c-.13-1.26-1.02-2.54-.98-3.89.04-1.28.99-2.51 1.2-3.84.19-1.27-.37-2.73-.02-4.02s1.56-2.28 2.02-3.47c.49-1.26.28-2.8.89-3.92a.209.209 0 0 1 .04-.06z" fill="#ffddce"/><g fill="#3e3d42"><path d="m27 25a1 1 0 0 0 1-1v-2a1 1 0 0 0 -2 0v2a1 1 0 0 0 1 1z"/><path d="m37 25a1 1 0 0 0 1-1v-2a1 1 0 0 0 -2 0v2a1 1 0 0 0 1 1z"/></g></svg>