<svg id="Line" height="512" viewBox="0 0 64 64" width="512" xmlns="http://www.w3.org/2000/svg"><path d="m53.468 43.468-1.832-1.832a9 9 0 0 1 -2.636-6.364v-20.272a12 12 0 0 0 -12-12h-10a12 12 0 0 0 -12 12v20.272a9 9 0 0 1 -2.636 6.364l-1.832 1.832a4 4 0 0 0 -.295 5.328l1.763 2.204h40l1.763-2.2a4 4 0 0 0 -.295-5.332z" fill="#3e3d42"/><path d="m20 44h24a8 8 0 0 1 8 8v9a0 0 0 0 1 0 0h-40a0 0 0 0 1 0 0v-9a8 8 0 0 1 8-8z" fill="#f6c850"/><path d="m32 50a5.658 5.658 0 0 1 -5.648-5.99l.648-11.01h10l.648 11.01a5.658 5.658 0 0 1 -5.648 5.99z" fill="#ffcbbe"/><path d="m21 15h22a2 2 0 0 1 2 2v11a13 13 0 0 1 -13 13 13 13 0 0 1 -13-13v-11a2 2 0 0 1 2-2z" fill="#ffddce"/><g fill="#3e3d42"><path d="m27 21a1 1 0 0 0 -1 1v2a1 1 0 0 0 2 0v-2a1 1 0 0 0 -1-1z"/><path d="m37 21a1 1 0 0 0 -1 1v2a1 1 0 0 0 2 0v-2a1 1 0 0 0 -1-1z"/></g></svg>