<svg id="Line" height="512" viewBox="0 0 64 64" width="512" xmlns="http://www.w3.org/2000/svg"><path d="m26.35 44.01a5.408 5.408 0 0 0 .03.99h-6.38a7.991 7.991 0 0 0 -7.31 4.75l-.58-.81a5.986 5.986 0 0 1 -.49-6.18l2.75-5.49a6.108 6.108 0 0 0 .63-2.69v-10.58a2.006 2.006 0 0 0 2 2h2v2a13.014 13.014 0 0 0 7.6 11.83z" fill="#f6cc4f"/><g fill="#ffcbbe"><path d="m47.86 46a7.964 7.964 0 0 1 4.14 7v1h-3.75l-.16-.65a6.762 6.762 0 0 1 -.09-1.35v-5.51z"/><path d="m19 19v7h-2a2.006 2.006 0 0 1 -2-2v-3a2.006 2.006 0 0 1 2-2z"/><path d="m44 45h-6v-9h-11.11a1.95 1.95 0 0 0 -.29-.17v.17h-.6v9h-6a8 8 0 0 0 -8 8v1h40v-1a8 8 0 0 0 -8-8z"/></g><path d="m40.7 36.73a10.988 10.988 0 0 1 -8.7 4.27 12.987 12.987 0 0 1 -13-13v-11c0-1.1 9.74-4.9 9.74-4.9a.959.959 0 0 1 .53-.05l7.71 3.34a9.883 9.883 0 0 1 4.5 3.89c1.13 4.01.33 11.16-.78 17.45z" fill="#ffddce"/><path d="m27 25a1 1 0 0 0 1-1v-2a1 1 0 0 0 -2 0v2a1 1 0 0 0 1 1z" fill="#3e3d42"/><path d="m37 25a1 1 0 0 0 1-1v-2a1 1 0 0 0 -2 0v2a1 1 0 0 0 1 1z" fill="#3e3d42"/><path d="m23 54v-9h-2v9h-9v7h40v-7z" fill="#3e3d42"/><path d="m47.86 46 .14.49v5.51a6.762 6.762 0 0 0 .09 1.35l.16.65.75 3h-3a8.01 8.01 0 0 1 -8-8s1.53-5.65 2.7-12.27c1.11-6.29 1.91-13.44.78-17.45a9.883 9.883 0 0 0 -4.5-3.89l-7.71-3.34a.959.959 0 0 0 -.53.05s-9.74 3.8-9.74 4.9v2h-2a2.006 2.006 0 0 0 -2 2v-4a14 14 0 0 1 14-14h6a14 14 0 0 1 14 14v17.73a13.935 13.935 0 0 1 -.72 4.43l-.89 2.67a4.037 4.037 0 0 0 -.05 2.36z" fill="#f6cc4f"/><path d="m21 45h2v9h-2z" fill="#787680"/></svg>