<svg id="Line" height="512" viewBox="0 0 64 64" width="512" xmlns="http://www.w3.org/2000/svg"><path d="m20 45h24a8 8 0 0 1 8 8v8a0 0 0 0 1 0 0h-40a0 0 0 0 1 0 0v-8a8 8 0 0 1 8-8z" fill="#f6cc4f"/><path d="m35 3h-6a14 14 0 0 0 -14 14v28.5a9.5 9.5 0 0 0 9.5 9.5 1.5 1.5 0 0 0 1.5-1.5v-8.5h12v8.5a1.5 1.5 0 0 0 1.5 1.5 9.5 9.5 0 0 0 9.5-9.5v-28.5a14 14 0 0 0 -14-14z" fill="#3e3d42"/><g fill="#ffcbbe"><path d="m32 50a5.658 5.658 0 0 1 -5.648-5.99l.648-11.01h10l.648 11.01a5.658 5.658 0 0 1 -5.648 5.99z"/><path d="m17 19h2a0 0 0 0 1 0 0v7a0 0 0 0 1 0 0h-2a2 2 0 0 1 -2-2v-3a2 2 0 0 1 2-2z"/><path d="m47 19h2a0 0 0 0 1 0 0v7a0 0 0 0 1 0 0h-2a2 2 0 0 1 -2-2v-3a2 2 0 0 1 2-2z" transform="matrix(-1 0 0 -1 94 45)"/></g><path d="m45 16.66v11.34a13 13 0 0 1 -26 0v-10.69a1.981 1.981 0 0 1 1.2-1.83l6.01-2.64a11.914 11.914 0 0 1 5.66-.3l11.5 2.15a2.013 2.013 0 0 1 1.63 1.97z" fill="#ffddce"/><path d="m27 25a1 1 0 0 0 1-1v-2a1 1 0 0 0 -2 0v2a1 1 0 0 0 1 1z" fill="#3e3d42"/><path d="m37 25a1 1 0 0 0 1-1v-2a1 1 0 0 0 -2 0v2a1 1 0 0 0 1 1z" fill="#3e3d42"/><circle cx="32" cy="54" fill="#e9e9ea" r="1"/><circle cx="32" cy="58" fill="#e9e9ea" r="1"/></svg>