<svg id="Line" height="512" viewBox="0 0 64 64" width="512" xmlns="http://www.w3.org/2000/svg"><path d="m20 45h24a8 8 0 0 1 8 8v8a0 0 0 0 1 0 0h-40a0 0 0 0 1 0 0v-8a8 8 0 0 1 8-8z" fill="#dd636e"/><path d="m47.95 46.05a10.015 10.015 0 0 1 -9.95 8.95h-12a10.015 10.015 0 0 1 -9.95-8.95 7.872 7.872 0 0 1 3.95-1.05h6.39a5.4 5.4 0 0 1 -.04-.99l.65-11.01h10l.65 11.01a5.4 5.4 0 0 1 -.04.99h6.39a7.872 7.872 0 0 1 3.95 1.05z" fill="#ffcbbe"/><path d="m32 41a13 13 0 0 1 -13-13v-12a4 4 0 0 1 4-4h22v16a13 13 0 0 1 -13 13z" fill="#ffddce"/><path d="m32 12h-9a4 4 0 0 0 -4 4v12a12.882 12.882 0 0 0 2.05 7h-4.05a6 6 0 0 1 -6-6v-12a14 14 0 0 1 14-14h10a14 14 0 0 1 14 14v18h-6.05a12.882 12.882 0 0 0 2.05-7v-9h-6a2.968 2.968 0 0 1 -2.82-2h-1.18a3 3 0 0 1 -3-3z" fill="#3e3d42"/><path d="m47 19h2a0 0 0 0 1 0 0v7a0 0 0 0 1 0 0h-2a2 2 0 0 1 -2-2v-3a2 2 0 0 1 2-2z" fill="#ffcbbe" transform="matrix(-1 0 0 -1 94 45)"/><g fill="#3e3d42"><path d="m27 21a1 1 0 0 0 -1 1v2a1 1 0 0 0 2 0v-2a1 1 0 0 0 -1-1z"/><path d="m37 25a1 1 0 0 0 1-1v-2a1 1 0 0 0 -2 0v2a1 1 0 0 0 1 1z"/></g></svg>