<svg id="Line" height="512" viewBox="0 0 64 64" width="512" xmlns="http://www.w3.org/2000/svg"><path d="m50 51v-17a10 10 0 0 0 -10-10h-4v7h3a4 4 0 0 1 4 4v14z" fill="#3e3d42"/><path d="m20 45h24a8 8 0 0 1 8 8v8a0 0 0 0 1 0 0h-40a0 0 0 0 1 0 0v-8a8 8 0 0 1 8-8z" fill="#e4bf93"/><path d="m23 45 2 8 5-4-1-4z" fill="#fff"/><path d="m41 45-2 8-5-4 1-4z" fill="#fff"/><path d="m38 45-6 6-6-6 1-12h10z" fill="#ffcbbe"/><path d="m46 21h2a0 0 0 0 1 0 0v7a0 0 0 0 1 0 0h-2a2 2 0 0 1 -2-2v-3a2 2 0 0 1 2-2z" fill="#ffcbbe" transform="matrix(-1 0 0 -1 92 49)"/><circle cx="45" cy="13" fill="#2d2d30" r="6"/><path d="m18 21h2a0 0 0 0 1 0 0v7a0 0 0 0 1 0 0h-2a2 2 0 0 1 -2-2v-3a2 2 0 0 1 2-2z" fill="#ffcbbe"/><path d="m32 41a13 13 0 0 1 -13-13v-19l26 1v18a13 13 0 0 1 -13 13z" fill="#ffddce"/><g fill="#3e3d42"><path d="m48 19v4h-3l-2.51-5.02a2.088 2.088 0 0 0 -1.49-1.08 5 5 0 0 1 -4-4.9 6 6 0 0 1 -6 6h-6.53a4.02 4.02 0 0 0 -3.58 2.21l-1.89 2.79h-3v-4c0-11.5 7.163-16 16-16a16 16 0 0 1 16 16z"/><path d="m27 21a1 1 0 0 0 -1 1v2a1 1 0 0 0 2 0v-2a1 1 0 0 0 -1-1z"/><path d="m37 25a1 1 0 0 0 1-1v-2a1 1 0 0 0 -2 0v2a1 1 0 0 0 1 1z"/></g></svg>