<svg id="Line" height="512" viewBox="0 0 64 64" width="512" xmlns="http://www.w3.org/2000/svg"><path d="m20 45h24a8 8 0 0 1 8 8v8a0 0 0 0 1 0 0h-40a0 0 0 0 1 0 0v-8a8 8 0 0 1 8-8z" fill="#5bcbfa"/><path d="m19 45.06v15.94h26v-15.94h-.04l-.96-.06h-24z" fill="#f6c850"/><path d="m23 45 2 8 5-4-1-4z" fill="#fff"/><path d="m41 45-2 8-5-4 1-4z" fill="#fff"/><path d="m38 45-6 6-6-6 1-12h10z" fill="#ffcbbe"/><path d="m49 23h-34v-20h26a8 8 0 0 1 8 8z" fill="#3e3d42"/><path d="m17 19h2a0 0 0 0 1 0 0v7a0 0 0 0 1 0 0h-2a2 2 0 0 1 -2-2v-3a2 2 0 0 1 2-2z" fill="#ffcbbe"/><path d="m47 19h2a0 0 0 0 1 0 0v7a0 0 0 0 1 0 0h-2a2 2 0 0 1 -2-2v-3a2 2 0 0 1 2-2z" fill="#ffcbbe" transform="matrix(-1 0 0 -1 94 45)"/><path d="m21 15h22a2 2 0 0 1 2 2v11a13 13 0 0 1 -13 13 13 13 0 0 1 -13-13v-11a2 2 0 0 1 2-2z" fill="#ffddce"/><g fill="#3e3d42"><path d="m27 21a1 1 0 0 0 -1 1v2a1 1 0 0 0 2 0v-2a1 1 0 0 0 -1-1z"/><path d="m37 25a1 1 0 0 0 1-1v-2a1 1 0 0 0 -2 0v2a1 1 0 0 0 1 1z"/></g></svg>