<svg id="Line" height="512" viewBox="0 0 64 64" width="512" xmlns="http://www.w3.org/2000/svg"><path d="m20 44h24a8 8 0 0 1 8 8v9a0 0 0 0 1 0 0h-40a0 0 0 0 1 0 0v-9a8 8 0 0 1 8-8z" fill="#ffcbbe"/><path d="m20 44h24v17h-24z" fill="#dd636e"/><path d="m32 50a5.658 5.658 0 0 1 -5.648-5.99l.648-11.01h10l.648 11.01a5.658 5.658 0 0 1 -5.648 5.99z" fill="#ffcbbe"/><path d="m48 23h-32v-15l-2-5 8 3 5-3 5 3 5-3 5 3 2.658.443a4 4 0 0 1 3.342 3.946z" fill="#3e3d42"/><path d="m17 19h2a0 0 0 0 1 0 0v7a0 0 0 0 1 0 0h-2a2 2 0 0 1 -2-2v-3a2 2 0 0 1 2-2z" fill="#ffcbbe"/><path d="m47 19h2a0 0 0 0 1 0 0v7a0 0 0 0 1 0 0h-2a2 2 0 0 1 -2-2v-3a2 2 0 0 1 2-2z" fill="#ffcbbe" transform="matrix(-1 0 0 -1 94 45)"/><path d="m21 15h22a2 2 0 0 1 2 2v11a13 13 0 0 1 -13 13 13 13 0 0 1 -13-13v-11a2 2 0 0 1 2-2z" fill="#ffddce"/><g fill="#3e3d42"><path d="m27 21a1 1 0 0 0 -1 1v2a1 1 0 0 0 2 0v-2a1 1 0 0 0 -1-1z"/><path d="m37 25a1 1 0 0 0 1-1v-2a1 1 0 0 0 -2 0v2a1 1 0 0 0 1 1z"/></g></svg>