<svg id="Line" height="512" viewBox="0 0 64 64" width="512" xmlns="http://www.w3.org/2000/svg"><path d="m52.8 24c0 1.791-1.808 3.32-2.25 4.972-.456 1.708.331 3.934-.534 5.43-.878 1.518-3.208 1.943-4.44 3.175s-1.657 3.561-3.174 4.439c-1.5.866-3.722.078-5.431.534-1.651.442-3.18 2.25-4.971 2.25s-3.32-1.808-4.972-2.25c-1.708-.456-3.934.331-5.43-.534-1.518-.878-1.943-3.208-3.175-4.44s-3.561-1.657-4.439-3.174c-.866-1.5-.078-3.722-.534-5.431-.442-1.651-2.25-3.18-2.25-4.971s1.808-3.32 2.25-4.972c.456-1.708-.331-3.934.534-5.43.878-1.518 3.208-1.943 4.44-3.175s1.657-3.561 3.176-4.439c1.5-.866 3.722-.078 5.431-.534 1.649-.442 3.178-2.25 4.969-2.25s3.32 1.808 4.972 2.25c1.708.456 3.934-.331 5.43.534 1.518.878 1.943 3.208 3.175 4.44s3.561 1.657 4.439 3.174c.866 1.5.078 3.722.534 5.431.442 1.651 2.25 3.18 2.25 4.971z" fill="#3e3d42"/><path d="m20 44h24a8 8 0 0 1 8 8v9a0 0 0 0 1 0 0h-40a0 0 0 0 1 0 0v-9a8 8 0 0 1 8-8z" fill="#c7bec5"/><g fill="#ffcbbe"><path d="m32 50a5.658 5.658 0 0 1 -5.648-5.99l.648-11.01h10l.648 11.01a5.658 5.658 0 0 1 -5.648 5.99z"/><path d="m17 19h2a0 0 0 0 1 0 0v7a0 0 0 0 1 0 0h-2a2 2 0 0 1 -2-2v-3a2 2 0 0 1 2-2z"/><path d="m47 19h2a0 0 0 0 1 0 0v7a0 0 0 0 1 0 0h-2a2 2 0 0 1 -2-2v-3a2 2 0 0 1 2-2z" transform="matrix(-1 0 0 -1 94 45)"/></g><path d="m32 41a13 13 0 0 1 -13-13v-9a6 6 0 0 1 2.4-4.8 6 6 0 0 1 3.6-1.2h14a6 6 0 0 1 3.6 1.2 6 6 0 0 1 2.4 4.8v9a13 13 0 0 1 -13 13z" fill="#ffddce"/><path d="m27 25a1 1 0 0 0 1-1v-2a1 1 0 0 0 -2 0v2a1 1 0 0 0 1 1z" fill="#3e3d42"/><path d="m37 25a1 1 0 0 0 1-1v-2a1 1 0 0 0 -2 0v2a1 1 0 0 0 1 1z" fill="#3e3d42"/></svg>