<svg id="Line" height="512" viewBox="0 0 64 64" width="512" xmlns="http://www.w3.org/2000/svg"><path d="m47 20h2a0 0 0 0 1 0 0v7a0 0 0 0 1 0 0h-2a2 2 0 0 1 -2-2v-3a2 2 0 0 1 2-2z" fill="#ffcbbe" transform="matrix(-1 0 0 -1 94 47)"/><path d="m20 44h24a8 8 0 0 1 8 8v9a0 0 0 0 1 0 0h-40a0 0 0 0 1 0 0v-9a8 8 0 0 1 8-8z" fill="#3e3d42"/><path d="m32 50a5.658 5.658 0 0 1 -5.648-5.99l.648-11.01h10l.648 11.01a5.658 5.658 0 0 1 -5.648 5.99z" fill="#ffcbbe"/><rect fill="#ffddce" height="38" rx="13" width="26" x="19" y="3"/><path d="m17 19h2a0 0 0 0 1 0 0v7a0 0 0 0 1 0 0h-2a2 2 0 0 1 -2-2v-3a2 2 0 0 1 2-2z" fill="#ffcbbe"/><g fill="#3e3d42"><path d="m27.931 9a6 6 0 0 0 -5.3 3.178l-3.631 6.822v-3a13 13 0 0 1 22.19-9.19 11.909 11.909 0 0 1 1.05 1.19 12.9 12.9 0 0 1 2.76 8v3l-3.636-6.822a6 6 0 0 0 -5.295-3.178z"/><path d="m28 24v-2a1 1 0 0 0 -2 0v2a1 1 0 0 0 2 0z"/><path d="m37 25a1 1 0 0 0 1-1v-2a1 1 0 0 0 -2 0v2a1 1 0 0 0 1 1z"/></g></svg>