<svg id="Line" height="512" viewBox="0 0 64 64" width="512" xmlns="http://www.w3.org/2000/svg"><path d="m20 43h24a8 8 0 0 1 8 8v9a0 0 0 0 1 0 0h-40a0 0 0 0 1 0 0v-9a8 8 0 0 1 8-8z" fill="#e28086"/><path d="m42 43a10 10 0 0 1 -20 0z" fill="#fff"/><path d="m32 50a5.658 5.658 0 0 1 -5.648-5.99l.648-11.01h10l.648 11.01a5.658 5.658 0 0 1 -5.648 5.99z" fill="#ffcbbe"/><rect fill="#ffddce" height="38" rx="13" width="26" x="19" y="3"/><path d="m17 19h2a0 0 0 0 1 0 0v7a0 0 0 0 1 0 0h-2a2 2 0 0 1 -2-2v-3a2 2 0 0 1 2-2z" fill="#ffcbbe"/><path d="m47 19h2a0 0 0 0 1 0 0v7a0 0 0 0 1 0 0h-2a2 2 0 0 1 -2-2v-3a2 2 0 0 1 2-2z" fill="#ffcbbe" transform="matrix(-1 0 0 -1 94 45)"/><g fill="#3e3d42"><path d="m19 16v2h4v-5a4.025 4.025 0 0 0 -1.17-2.83 3.856 3.856 0 0 0 -1.04-.74 12.859 12.859 0 0 0 -1.79 6.57z"/><path d="m45 16v2h-4v-5a4.025 4.025 0 0 1 1.17-2.83 3.856 3.856 0 0 1 1.04-.74 12.859 12.859 0 0 1 1.79 6.57z"/><path d="m37.81 4.37c-.67 1.51-3.02 2.63-5.81 2.63s-5.14-1.12-5.8-2.63h-.01a13 13 0 0 1 11.62 0z"/><path d="m27 21a1 1 0 0 0 -1 1v2a1 1 0 0 0 2 0v-2a1 1 0 0 0 -1-1z"/><path d="m37 25a1 1 0 0 0 1-1v-2a1 1 0 0 0 -2 0v2a1 1 0 0 0 1 1z"/></g></svg>