<svg id="Line" height="512" viewBox="0 0 64 64" width="512" xmlns="http://www.w3.org/2000/svg"><path d="m44 45h-24a8.262 8.262 0 0 0 -1 .06 8 8 0 0 0 -7 7.94v8h40v-8a8 8 0 0 0 -7-7.94z" fill="#5bcbfa"/><path d="m44 45h-24a8.262 8.262 0 0 0 -1 .06v15.94h26v-15.94z" fill="#ec455a"/><path d="m23 45 2 8 5-4-1-4z" fill="#fff"/><path d="m41 45-2 8-5-4 1-4z" fill="#fff"/><path d="m38 45-6 6-6-6 1-12h10z" fill="#ffcbbe"/><path d="m48 23h-32v-8a12 12 0 0 1 12-12h8a12 12 0 0 1 12 12z" fill="#3e3d42"/><path d="m17 19h2a0 0 0 0 1 0 0v7a0 0 0 0 1 0 0h-2a2 2 0 0 1 -2-2v-3a2 2 0 0 1 2-2z" fill="#ffcbbe"/><path d="m47 19h2a0 0 0 0 1 0 0v7a0 0 0 0 1 0 0h-2a2 2 0 0 1 -2-2v-3a2 2 0 0 1 2-2z" fill="#ffcbbe" transform="matrix(-1 0 0 -1 94 45)"/><path d="m32 41a13 13 0 0 1 -13-13v-10l3-5 2.688-1.152a14.046 14.046 0 0 1 9.488-.557c3.6 1.056 7.808 2.447 8.424 2.909l2.4 4.8v9a13 13 0 0 1 -13 13z" fill="#ffddce"/><g fill="#3e3d42"><path d="m26 21a1 1 0 0 0 -1 1v2a1 1 0 0 0 2 0v-2a1 1 0 0 0 -1-1z"/><path d="m38 25a1 1 0 0 0 1-1v-2a1 1 0 0 0 -2 0v2a1 1 0 0 0 1 1z"/></g></svg>