<svg id="Line" height="512" viewBox="0 0 64 64" width="512" xmlns="http://www.w3.org/2000/svg"><path d="m52 53v8h-40v-8a8 8 0 0 1 7-7.94h.04l.96-.06h24a8.262 8.262 0 0 1 1 .06 8 8 0 0 1 7 7.94z" fill="#5bcbfa"/><path d="m45 45.06v15.94h-26v-15.94h.04l.96-.06h24a8.262 8.262 0 0 1 1 .06z" fill="#ec455a"/><path d="m23 45 2 8 5-4-1-4z" fill="#fff"/><path d="m41 45-2 8-5-4 1-4z" fill="#fff"/><path d="m38 45-6 6-6-6 1-12h10z" fill="#ffcbbe"/><path d="m16 18.51v4.49h32v-4.49a1.454 1.454 0 0 1 -.32-.63 2.474 2.474 0 0 1 .32-1.4c.38-.85.91-1.74.65-2.38-.43-1.03-2.74-1.06-3.36-1.98s.24-3.08-.55-3.86-2.93.07-3.86-.55-.95-2.93-1.98-3.36-2.67 1.19-3.78.97c-1.07-.21-1.98-2.34-3.12-2.34s-2.05 2.13-3.12 2.34c-1.11.22-2.76-1.39-3.78-.97s-1.06 2.74-1.98 3.36-3.08-.24-3.86.55.07 2.93-.55 3.86-2.93.95-3.36 1.98c-.26.64.27 1.53.65 2.38a2.474 2.474 0 0 1 .32 1.4 1.454 1.454 0 0 1 -.32.63z" fill="#3e3d42"/><path d="m17 19h2a0 0 0 0 1 0 0v7a0 0 0 0 1 0 0h-2a2 2 0 0 1 -2-2v-3a2 2 0 0 1 2-2z" fill="#ffcbbe"/><path d="m47 19h2a0 0 0 0 1 0 0v7a0 0 0 0 1 0 0h-2a2 2 0 0 1 -2-2v-3a2 2 0 0 1 2-2z" fill="#ffcbbe" transform="matrix(-1 0 0 -1 94 45)"/><path d="m32 41a13 13 0 0 1 -13-13v-9a6 6 0 0 1 2.4-4.8 6 6 0 0 1 3.6-1.2h14a6 6 0 0 1 3.6 1.2 6 6 0 0 1 2.4 4.8v9a13 13 0 0 1 -13 13z" fill="#ffddce"/><g fill="#3e3d42"><path d="m27 21a1 1 0 0 0 -1 1v2a1 1 0 0 0 2 0v-2a1 1 0 0 0 -1-1z"/><path d="m37 25a1 1 0 0 0 1-1v-2a1 1 0 0 0 -2 0v2a1 1 0 0 0 1 1z"/></g></svg>