<svg id="Line" height="512" viewBox="0 0 64 64" width="512" xmlns="http://www.w3.org/2000/svg"><g fill="#ffcbbe"><path d="m44 49h-6.387a5.7 5.7 0 0 0 .035-.99l-.648-11.01h-10l-.648 11.01a5.7 5.7 0 0 0 .035.99h-6.387a8 8 0 0 0 -8 8v4h40v-4a8 8 0 0 0 -8-8z"/><path d="m17 23h2a0 0 0 0 1 0 0v7a0 0 0 0 1 0 0h-2a2 2 0 0 1 -2-2v-3a2 2 0 0 1 2-2z"/><path d="m47 23h2a0 0 0 0 1 0 0v7a0 0 0 0 1 0 0h-2a2 2 0 0 1 -2-2v-3a2 2 0 0 1 2-2z" transform="matrix(-1 0 0 -1 94 53)"/></g><rect fill="#ffddce" height="38" rx="13" width="26" x="19" y="7"/><path d="m35 17h-6l-3-14h12z" fill="#3e3d42"/><path d="m27 25a1 1 0 0 0 -1 1v2a1 1 0 0 0 2 0v-2a1 1 0 0 0 -1-1z" fill="#3e3d42"/><path d="m37 29a1 1 0 0 0 1-1v-2a1 1 0 0 0 -2 0v2a1 1 0 0 0 1 1z" fill="#3e3d42"/></svg>