<svg id="Line" height="512" viewBox="0 0 64 64" width="512" xmlns="http://www.w3.org/2000/svg"><path d="m20 44h24a8 8 0 0 1 8 8v9a0 0 0 0 1 0 0h-40a0 0 0 0 1 0 0v-9a8 8 0 0 1 8-8z" fill="#e9656c"/><path d="m32 50a5.658 5.658 0 0 1 -5.648-5.99l.648-11.01h10l.648 11.01a5.658 5.658 0 0 1 -5.648 5.99z" fill="#ffcbbe"/><path d="m32 42a13 13 0 0 1 -13-13v-12c0-12.513 5.82-10 13-10 7.18 0 13 2.82 13 10v12a13 13 0 0 1 -13 13z" fill="#ffddce"/><g fill="#3e3d42"><path d="m29 5h-8a4 4 0 0 0 -4 4v12h2.5l1.39-2.79a4.02 4.02 0 0 1 3.58-2.21h6.53a6 6 0 0 0 6-6 5 5 0 0 0 4.031 4.906 2.046 2.046 0 0 1 1.459 1.074l2.51 5.02h2v-14a4 4 0 0 0 -4-4h-10c-2.209 0-4-.209-4 2z"/><path d="m28 24v-2a1 1 0 0 0 -2 0v2a1 1 0 0 0 2 0z"/><path d="m37 25a1 1 0 0 0 1-1v-2a1 1 0 0 0 -2 0v2a1 1 0 0 0 1 1z"/></g><path d="m17 19h2a0 0 0 0 1 0 0v7a0 0 0 0 1 0 0h-2a2 2 0 0 1 -2-2v-3a2 2 0 0 1 2-2z" fill="#ffcbbe"/><path d="m47 19h2a0 0 0 0 1 0 0v7a0 0 0 0 1 0 0h-2a2 2 0 0 1 -2-2v-3a2 2 0 0 1 2-2z" fill="#ffcbbe" transform="matrix(-1 0 0 -1 94 45)"/></svg>