<svg id="Line" height="512" viewBox="0 0 64 64" width="512" xmlns="http://www.w3.org/2000/svg"><path d="m20 45h24a8 8 0 0 1 8 8v8a0 0 0 0 1 0 0h-40a0 0 0 0 1 0 0v-8a8 8 0 0 1 8-8z" fill="#365e7d"/><path d="m38 48-6 5-6-5 1-15h10z" fill="#ffcbbe"/><path d="m38 4a8.968 8.968 0 0 0 -2.814.455 13.977 13.977 0 0 0 -20.186 12.545h14.947a9 9 0 1 0 8.053-13z" fill="#3e3d42"/><path d="m17 19h2a0 0 0 0 1 0 0v7a0 0 0 0 1 0 0h-2a2 2 0 0 1 -2-2v-3a2 2 0 0 1 2-2z" fill="#ffcbbe"/><path d="m47 19h2a0 0 0 0 1 0 0v7a0 0 0 0 1 0 0h-2a2 2 0 0 1 -2-2v-3a2 2 0 0 1 2-2z" fill="#ffcbbe" transform="matrix(-1 0 0 -1 94 45)"/><path d="m32 41a13 13 0 0 1 -13-13v-9a6 6 0 0 1 2.4-4.8 6 6 0 0 1 3.6-1.2h14a6 6 0 0 1 3.6 1.2 6 6 0 0 1 2.4 4.8v9a13 13 0 0 1 -13 13z" fill="#ffddce"/><path d="" fill="none"/><path d="m28.08 49.73-4.08 3.27-2.37-7.9a2 2 0 0 1 1.52-2.53l3.24-.48 2.61 6.91z" fill="#e9e9ea"/><path d="m35 49 2.61-6.91 3.24.48a2 2 0 0 1 1.52 2.53l-2.37 7.9-4.08-3.27z" fill="#e9e9ea"/><g fill="#3e3d42"><path d="m27 21a1 1 0 0 0 -1 1v2a1 1 0 0 0 2 0v-2a1 1 0 0 0 -1-1z"/><path d="m37 25a1 1 0 0 0 1-1v-2a1 1 0 0 0 -2 0v2a1 1 0 0 0 1 1z"/></g></svg>